<svg width="57" height="65" viewBox="0 0 57 65" fill="none" xmlns="http://www.w3.org/2000/svg">
<path d="M42.7136 9.21021C42.7136 11.5393 44.6091 13.4348 46.9382 13.4348C49.2673 13.4348 51.1628 11.5393 51.1628 9.21021C51.1628 6.8811 49.2673 4.9856 46.9382 4.9856C44.6091 4.9856 42.7136 6.8811 42.7136 9.21021ZM49.6628 9.21021C49.6628 10.7122 48.4402 11.9348 46.9382 11.9348C45.4363 11.9348 44.2136 10.7122 44.2136 9.21021C44.2136 7.70825 45.4363 6.4856 46.9382 6.4856C48.4402 6.4856 49.6628 7.70825 49.6628 9.21021Z" fill="white"/>
<path d="M29.9986 21.3784C29.2721 21.8115 28.7457 21.7887 28.2588 21.5693C27.4494 20.9315 26.7377 20.1802 25.8269 19.6643C22.0199 17.5333 17.3447 16.8171 12.9804 18.1456C0.461112 21.2204 -2.423 35.0986 2.94346 44.1572C4.76823 47.2375 7.41074 49.7447 10.1404 52.0613C15.6795 56.7625 21.7574 61.1664 28.1767 64.5688C28.64 64.4144 29.4739 64.2599 29.9371 64.1055C29.9019 64.0836 29.8668 64.0598 29.8316 64.0378C30.1229 63.9797 28.9874 64.8771 45.8298 51.0168C48.4978 48.8176 51.2575 46.5442 53.281 43.6282C56.6267 38.8293 57.5437 32.5842 55.6736 27.3264C54.8724 25.0927 53.5436 23.0345 51.8236 21.3311C53.5485 18.2584 56.136 13.2222 56.2497 10.4778C56.5624 2.92086 49.1436 -1.6195 43.0913 1.35003C39.8385 2.72113 37.8475 5.67673 37.3985 8.76074C37.0185 11.3697 37.6987 13.9904 38.5724 16.4592C36.3146 16.5659 34.5605 17.403 32.7166 19.1701C32.0979 19.7631 30.7347 20.9395 29.9986 21.3784ZM28.4949 23.4973C31.1475 24.7717 33.4797 20.8626 35.3728 19.8479C36.6329 19.1815 37.9873 18.7344 39.3537 18.5044C40.5655 21.4094 42.0893 24.194 43.6065 26.9634C44.012 27.7034 44.4336 28.4426 45.1622 28.8452C44.7635 30.0242 44.3106 31.1953 43.6042 32.1858C40.8005 36.1145 35.2958 36.4651 30.5501 36.7937C31.0245 36.2648 31.4902 35.7271 31.9831 35.218C32.2712 34.9211 32.2634 34.4456 31.9656 34.1575C31.6677 33.8704 31.1941 33.8772 30.905 34.175C30.2335 34.8683 29.5899 35.5929 28.9524 36.3218C28.2962 35.7295 27.6403 35.1353 26.9695 34.5706C26.6531 34.302 26.1784 34.344 25.9128 34.6604C25.6452 34.9778 25.6863 35.4504 26.0027 35.717C26.5198 36.1525 27.0227 36.6148 27.5314 37.0671C18.5967 38.1615 15.6634 42.4199 13.5714 51.1761C-5.50703 36.2264 5.03798 18.9719 17.5232 18.9719C20.1918 18.9719 22.8262 19.705 25.0915 20.9709C26.1896 21.5933 27.191 22.8816 28.4949 23.4973ZM54.2605 27.8303C55.9714 32.6379 55.1238 38.3625 52.0505 42.7708L52.0495 42.7717C49.7163 46.1346 47.8799 47.4016 29.6833 62.344C24.9946 58.5751 19.7142 55.7489 14.8736 52.1827C16.7648 44.1407 18.8159 39.8448 27.0387 38.642C26.7845 38.9655 26.5125 39.278 26.2663 39.6057C26.0173 39.9368 26.0847 40.4065 26.4158 40.6555C26.7466 40.9048 27.217 40.837 27.4656 40.5061C27.9834 39.8171 28.5371 39.1484 29.0901 38.48C29.816 39.1622 30.5371 39.8509 31.2341 40.5588C31.5252 40.8538 31.9998 40.8576 32.2947 40.5667C32.5896 40.2766 32.5935 39.801 32.3025 39.5061C31.8859 39.0831 31.4481 38.6782 31.0209 38.2635C33.0173 38.1267 35.0159 37.9979 36.9822 37.5911C39.449 37.0793 42.8122 35.8772 44.8249 33.0569C45.732 31.7852 46.2452 30.3534 46.7102 28.9426C47.1356 28.7719 47.4819 28.4467 47.667 28.0178C48.3935 27.1535 50.4879 23.6584 51.0554 22.679C52.4792 24.1672 53.5798 25.9329 54.2605 27.8303ZM54.7517 10.4153C54.5955 14.1408 48.7039 23.9901 46.5408 27.0422C46.442 27.1814 46.2233 27.1859 46.1277 27.0276C44.1885 23.7771 39.307 13.4141 39.4509 9.6438C39.6357 5.21375 42.9236 1.79819 47.365 1.9563C51.696 2.13598 54.9402 5.8518 54.7517 10.4153Z" fill="white"/>
</svg>
