<svg width="65" height="65" viewBox="0 0 65 65" fill="none" xmlns="http://www.w3.org/2000/svg">
<path d="M62.6732 22.7515C62.6671 22.6762 62.6756 22.6022 62.6636 22.5265C62.52 21.6291 61.9761 20.8732 61.1704 20.4553C54.5005 16.9865 47.1567 13.5012 39.3442 10.0978C38.4038 9.68865 37.312 9.81951 36.4888 10.4367L1.95362 36.4113C1.23933 36.9497 0.7929 37.7829 0.829776 38.7908C-0.450863 40.7337 -0.140194 44.149 1.0196 46.0381C0.737308 45.6464 0.485599 45.2242 0.310733 44.7686C1.14998 48.2967 3.51492 50.2048 6.76117 52.4793C11.6439 55.9003 16.7218 59.0425 21.9622 61.8854C29.4717 65.9594 32.5425 65.0091 38.154 59.4898C44.5422 53.2065 50.9305 46.9232 57.3187 40.6399C60.6793 37.3346 63.9702 33.9681 63.9954 29.2489C64.3834 26.24 63.4391 23.5319 62.6732 22.7515ZM1.64276 40.6706C2.09021 41.1264 1.8478 40.8549 2.93506 41.7043C8.52002 45.9055 14.2964 50.2492 20.728 53.5451C22.5941 54.5022 24.4306 55.3347 26.4692 55.1956C26.315 55.6251 26.4372 55.3925 27.7037 61.2975C26.5144 61.2007 25.0355 60.6971 23.9868 60.1408C17.3241 56.605 13.2419 53.7339 6.96143 49.7033C5.15381 48.5451 3.34717 46.8449 2.35889 45.3722C1.61719 44.268 1.28095 42.1976 1.64276 40.6706ZM61.8833 24.9748C61.9509 24.9059 61.9978 24.8246 62.0573 24.7506C62.847 26.7721 62.7886 29.5679 61.8032 31.5451C60.6575 33.844 58.4576 35.7889 56.4497 37.6701C48.4501 45.2362 40.3321 52.0905 32.354 59.6379C31.6162 60.3367 30.31 60.8994 29.2098 61.1628C27.7945 54.9937 27.9679 55.2551 27.7387 54.9744C29.6777 54.416 31.285 52.9969 32.5034 51.9172C60.4728 27.1011 53.499 33.5335 61.8833 24.9748ZM2.85596 37.6105L37.3911 11.6359C37.7817 11.342 38.3013 11.2805 38.7446 11.4728C46.5269 14.8635 53.8394 18.3332 60.479 21.7853C61.278 22.2013 61.4477 23.277 60.811 23.926C58.6168 26.1658 56.4483 28.4484 54.2759 30.5988L31.5073 50.7951C27.626 54.238 25.9954 54.558 21.4116 52.2111C15.0952 48.9738 9.62647 44.8605 3.83643 40.506C3.23972 39.9604 2.31788 39.6864 2.31788 38.6877C2.31787 38.2599 2.51416 37.8674 2.85596 37.6105Z" fill="white"/>
<path d="M29.2739 35.882L38.0829 27.3515C42.7223 30.6436 42.4133 30.6906 42.8755 30.6906C43.5925 30.6906 43.9007 29.7797 43.3315 29.3439C41.9712 28.3064 40.5815 27.2905 39.1781 26.2909L44.0376 21.5851C44.3354 21.297 44.3432 20.8214 44.0552 20.5246C43.768 20.2267 43.2934 20.2199 42.9946 20.507L37.9322 25.4094C36.3771 24.3241 34.8048 23.2629 33.2202 22.2394C32.8706 22.0148 32.4077 22.1154 32.1831 22.4621C31.9585 22.8107 32.0581 23.2746 32.4057 23.4992C33.8941 24.4607 35.3705 25.4572 36.8329 26.4739L28.2309 34.8039C27.9331 35.092 27.9253 35.5675 28.2134 35.8644C28.5052 36.1659 28.9797 36.1663 29.2739 35.882Z" fill="white"/>
<path d="M18.0318 35.8459C21.9751 38.0539 25.8462 40.4934 29.5376 43.0988C29.6694 43.1906 29.8198 43.2356 29.9693 43.2356C30.7017 43.2356 30.9982 42.2938 30.4028 41.8723C26.6685 39.2385 22.7525 36.7697 18.7642 34.5373C18.4028 34.3342 17.9468 34.4641 17.7437 34.8254C17.5415 35.1867 17.6704 35.6438 18.0318 35.8459Z" fill="white"/>
<path d="M22.4546 45.4211C22.8563 45.5642 23.278 45.3517 23.4155 44.9719C23.5571 44.5822 23.355 44.1516 22.9663 44.0109C20.4849 43.1125 18.1421 41.8772 16.0015 40.3381C15.6665 40.0969 15.1958 40.1731 14.9546 40.51C14.7134 40.8459 14.7896 41.3147 15.1265 41.5568C17.3784 43.175 19.8443 44.4758 22.4546 45.4211Z" fill="white"/>
<path d="M0.310716 44.7686C0.177537 44.2087 0.0790266 43.6309 0.0114607 43.0262C-0.019179 43.6187 0.0964827 44.2106 0.310716 44.7686Z" fill="white"/>
<path d="M33.3091 8.78926C33.4028 8.78926 33.4975 8.77169 33.5893 8.73458C33.9731 8.58028 34.1597 8.14376 34.0044 7.75899L32.3442 3.63008C32.189 3.24629 31.7515 3.06368 31.3677 3.21407C30.9839 3.36934 30.7974 3.80587 30.9516 4.19063L32.6138 8.31954C32.7309 8.61153 33.0122 8.78926 33.3091 8.78926Z" fill="white"/>
<path d="M38.7437 7.69647C39.1196 7.69647 39.4448 7.41424 39.4878 7.03143L40.1909 0.83514C40.2378 0.42303 39.9419 0.0519366 39.5308 0.00506159C39.1089 -0.04279 38.7466 0.254085 38.7007 0.665218L37.9976 6.86151C37.9507 7.27362 38.2466 7.64471 38.6577 7.69159C38.687 7.69452 38.7153 7.69647 38.7437 7.69647Z" fill="white"/>
<path d="M44.4741 8.51094C45.5434 7.69453 46.4399 6.69844 47.1382 5.55C47.354 5.19649 47.2407 4.73457 46.8872 4.51973C46.5317 4.30391 46.0708 4.41719 45.8569 4.7707C45.2641 5.74531 44.4712 6.62617 43.564 7.31953C42.9925 7.75533 43.307 8.66524 44.02 8.66524C44.1782 8.66524 44.3384 8.61543 44.4741 8.51094Z" fill="white"/>
</svg>
