<svg width="60" height="65" viewBox="0 0 60 65" fill="none" xmlns="http://www.w3.org/2000/svg">
<path d="M53.9102 44.3385C54.1664 44.2793 54.4583 44.0589 54.8893 43.5813C56.6317 41.6511 58.135 39.0777 59.0554 36.6563C60.529 32.7796 60.3427 28.1346 57.2051 25.4823V24.3087C57.2051 22.4537 55.749 20.9034 53.8936 20.7789C52.7425 20.698 51.5699 20.6458 50.3874 20.5988C49.4572 19.3078 48.4293 18.2667 46.9296 17.4016C46.8231 16.3734 46.421 15.3798 45.7666 14.5723C47.7474 12.0415 48.3757 8.51283 47.4077 5.44765C47.4293 5.39308 47.4578 5.342 47.4658 5.28133C47.6797 3.67732 46.5664 2.28914 45.4287 2.11971C44.5186 1.98152 43.6436 2.25642 42.8369 2.57283C37.1369 4.80733 32.4991 9.19063 28.4041 13.0781C27.3058 12.52 25.9226 12.3191 24.4372 12.6201C18.4995 5.30195 16.1087 1.11752 12.0615 0.176346C11.1963 -0.0248259 9.92285 -0.0970915 9.03027 0.193924C8.37506 0.407303 7.6673 0.998612 7.19391 1.65248C7.05774 1.71095 6.93915 1.79848 6.85645 1.92976C5.71777 3.72322 4.46094 6.14168 4.8584 8.94295C5.13184 10.919 6.12891 12.7652 7.60059 14.0948C5.71165 15.3486 5.03852 18.1819 6.95764 20.6638C5.54364 20.6069 4.20184 20.5408 2.9082 20.4625C1.3477 20.3647 0 21.5687 0 23.1646V30.4859C0 31.9888 1.22266 33.2115 2.72559 33.2115H2.8551C2.78097 33.5172 2.84279 31.5527 2.82031 57.6197C2.82031 60.4761 4.78723 63.1205 9.74408 63.8276C12.3446 64.1986 14.9706 64.333 17.5919 64.4627C20.1587 64.5897 22.7385 64.9047 25.3079 64.6604C26.2654 64.5693 27.2175 64.3986 28.181 64.379C29.1291 64.3598 30.0154 64.6599 30.9595 64.7186C32.9307 64.8411 34.8823 64.4221 36.8372 64.2489C42.2414 63.77 41.6957 64.8242 51.8491 63.138C52.7715 62.9848 53.7402 62.8112 54.4634 62.2185C55.8678 61.0675 55.0966 58.9866 53.7919 58.7665C54.0009 57.7627 53.8692 58.3215 53.9102 44.3385ZM30.4819 18.9426C30.6037 18.9881 30.7233 19.0361 30.8447 19.0823C30.7684 19.2234 30.7258 19.3842 30.7539 19.5548C32.8103 32.0082 33.9863 49.1051 32.9189 62.4229C32.9053 62.6671 32.8711 62.817 32.7246 62.9864C31.7563 63.4978 30.6524 62.5488 29.2031 62.3731C27.8921 62.2333 26.7166 62.7532 25.627 63.0006C24.96 63.1471 24.0508 63.1148 23.5215 62.6021C23.8055 57.5522 25.948 42.8221 22.1902 20.9758C24.862 23.0613 29.1126 22.4685 30.4819 18.9426ZM45.0535 21.9648C46.5649 21.9757 48.073 22.0105 49.5529 22.0662C49.8837 22.604 50.1788 23.185 50.4457 23.7989C48.0916 24.7378 46.8658 26.9565 46.8076 29.2784C44.2622 27.8282 40.7117 28.7042 38.8899 31.7071H33.8204C33.5317 28.575 33.1584 25.4279 32.6996 22.3077C35.77 22.7072 37.7593 22.7322 39.7693 22.6088C41.599 23.118 43.5449 23.1073 45.0535 21.9648ZM51.001 25.1917C51.2443 25.9076 51.4523 26.6773 51.6323 27.5121C50.7944 28.5272 51.86 29.9299 53.0732 29.5284C54.3243 29.1095 54.3889 27.235 53.0291 26.8813C52.8666 26.1703 52.6848 25.5005 52.4768 24.8707C55.5678 24.7073 58.6101 27.9054 57.3281 34.0191C56.6914 37.0489 55.3184 39.9068 53.3535 42.3004C52.7669 42.2319 51.2712 41.9331 50.6533 41.8116C44.7093 40.6419 43.5351 40.8675 41.9131 39.8678C40.5693 39.0401 39.6074 37.5616 39.4023 36.0074C38.8391 31.7888 43.2294 28.7341 46.2471 30.6929C47.159 31.2697 48.3278 30.6208 48.3066 29.5416C48.2704 27.7755 49.1212 25.9395 51.001 25.1917ZM34.4639 61.8116C35.0701 53.6598 34.9218 44.698 34.0038 33.8167C35.2252 34.2621 36.8411 34.1677 37.9639 34.1475C37.4623 37.023 38.8513 39.7435 41.126 41.1451C43.0636 42.339 44.4108 42.115 50.3643 43.2833C51.1368 43.4353 51.8289 43.5706 52.4102 43.6709V57.6212C52.4102 59.8892 50.5654 61.7345 48.293 61.7345L34.4639 61.8116ZM32.4603 20.7661C32.4016 20.3898 32.3463 20.0123 32.2851 19.6373C33.2952 20.0469 33.5768 20.1749 35.8323 21.1115C34.7856 21.0476 33.6812 20.9344 32.4603 20.7661ZM11.0271 33.775C14.8025 33.9078 18.5779 34.0407 22.3533 34.1735C23.1158 43.3125 23.033 52.5667 22.0966 61.732H8.43359C6.16504 61.732 4.32031 59.8873 4.32031 57.6197V33.4036C6.03029 33.8873 8.76611 33.6954 11.0271 33.775ZM55.696 24.216C54.5879 23.531 53.3556 23.226 51.9155 23.4235C51.7331 22.986 51.5421 22.5573 51.3279 22.1491C52.1522 22.1867 52.9813 22.2183 53.791 22.2755C54.8325 22.3451 55.6483 23.19 55.696 24.216ZM48.415 20.5294C47.7128 20.5087 47.0093 20.4934 46.3 20.4824C46.6009 19.9166 46.7232 19.5395 46.8229 19.1029C47.3983 19.5065 47.9323 19.9884 48.415 20.5294ZM44.563 13.6441C44.3813 13.5977 44.1821 13.6168 44.0049 13.7183C43.7188 13.8824 43.3223 13.879 43.0381 13.711C42.6807 13.4981 42.2207 13.6168 42.0107 13.9722C41.7988 14.3282 41.916 14.7887 42.2725 15.0001C42.8706 15.3568 43.5707 15.4424 44.3062 15.2006C46.7388 17.5629 45.3841 23.0817 39.5156 20.9532C36.6573 19.9154 33.9271 18.6115 30.8311 17.4704C30.9203 16.3981 30.6766 15.4743 30.1833 14.6854C35.8361 12.5749 41.1696 9.71895 46.0671 6.19997C46.76 8.73396 46.1876 11.5775 44.563 13.6441ZM43.3838 3.96931C44.0928 3.69197 44.6738 3.52644 45.208 3.6031C45.4177 3.63454 45.7819 3.9615 45.9277 4.45338C41.2912 7.88161 36.2347 10.6826 30.8775 12.804C34.5149 9.39137 38.5996 5.84535 43.3838 3.96931ZM29.3594 17.1265C29.3506 17.4639 29.2998 17.7867 29.208 18.0914C28.015 22.159 21.961 20.9861 21.7324 17.4747C21.2257 13.3071 29.3497 12.473 29.3594 17.1265ZM9.49512 1.62019C10.0771 1.43025 11.0781 1.48738 11.7217 1.63728C15.0698 2.41569 17.3184 6.15547 22.9194 13.1273C22.8917 13.1406 22.863 13.1524 22.8356 13.1662C19.9344 11.7034 17.1673 9.808 14.792 8.12801C12.5059 6.5215 10.1577 4.75728 8.4765 2.43318C8.76581 2.07314 9.18219 1.722 9.49512 1.62019ZM9.177 15.0594C10.6095 16.2506 12.757 15.1026 11.9707 14.0909C11.7148 13.7642 11.2441 13.7052 10.918 13.961C10.6766 14.1482 10.2052 14.0742 10.0342 13.8092C9.86102 13.5392 9.54596 13.4212 9.24939 13.4835C7.68866 12.3836 6.60706 10.6377 6.34375 8.73494C6.07813 6.86189 6.75 5.12703 7.54492 3.69881C9.32031 6.01668 11.75 7.82332 13.9277 9.35408C16.1531 10.9281 18.7272 12.6796 21.4556 14.1279C19.9947 15.5589 19.861 17.6717 20.8284 19.3945C20.2203 19.7453 19.601 20.0108 18.9521 20.2838C17.1252 21.0509 15.6404 21.9551 13.1816 22.1309C11.5234 22.233 10.8818 21.8746 9.54297 21.0269C9.42418 20.9608 9.40504 20.9057 9.26855 20.8302C8.12402 19.9957 7.41309 18.8853 7.31445 17.774C7.21198 16.6305 7.98615 15.2407 9.177 15.0594ZM1.5 23.1646C1.5 22.4498 2.10134 21.9136 2.8125 21.9595C4.63782 22.07 6.54596 22.1568 8.64929 22.2268C10.4909 23.4746 11.5827 23.7367 13.2832 23.6275C16.0887 23.4268 17.872 22.3638 19.5332 21.6666C19.9162 21.5055 20.306 21.3395 20.6989 21.1539C21.3132 24.7102 21.7918 28.2539 22.1339 31.7115H2.72559C2.04981 31.7115 1.5 31.1617 1.5 30.4859V23.1646Z" fill="#9F217E"/>
<path d="M27.7422 49.0577C27.7139 49.4708 28.0254 49.8287 28.4385 49.857C28.4561 49.8585 28.4737 49.859 28.4912 49.859C28.8819 49.859 29.211 49.5562 29.2383 49.1602C29.5606 44.4679 29.4746 39.7144 28.9834 35.0333C28.9395 34.6212 28.5674 34.3302 28.1592 34.3658C27.7471 34.4093 27.4483 34.7784 27.4912 35.1905C27.9746 39.7852 28.0586 44.4513 27.7422 49.0577Z" fill="#9F217E"/>
<path d="M27.3154 18.8726C28.8951 17.6086 28.3242 14.8226 27.0547 15.4058C26.6787 15.5787 26.5137 16.024 26.6865 16.4005C26.8818 16.8258 26.7432 17.4088 26.3779 17.7008C26.0547 17.9595 26.0019 18.4317 26.2607 18.755C26.5185 19.0772 26.9893 19.1321 27.3154 18.8726Z" fill="#9F217E"/>
</svg>
