<svg width="63" height="66" viewBox="0 0 63 66" fill="none" xmlns="http://www.w3.org/2000/svg">
<path d="M37.7585 35.9763C37.8918 36.3107 38.2444 36.5025 38.594 36.4363C45.1632 35.2046 45.9539 35.1288 47.1535 34.5329C48.7776 33.7282 49.9597 32.1657 50.238 30.4538C50.6863 27.6916 48.7626 24.87 45.74 24.8259C45.2261 24.8095 44.6473 25.0614 44.2693 25.0954C44.1618 24.8694 44.0712 24.5029 43.865 24.1677C43.1342 22.987 41.9266 22.0864 40.5368 21.8064C38.4963 21.3991 36.2419 22.3972 35.1755 24.1814C33.8044 26.4782 34.5539 29.198 35.1228 30.614C35.8791 32.4994 37.0484 34.1862 37.7585 35.9763ZM39.5862 23.2126C41.0479 23.2126 42.3393 24.2271 42.7483 25.3288C43.1445 26.4094 43.5927 26.8414 45.175 26.4343C45.3757 26.3825 45.5925 26.3073 45.7185 26.3259C49.1597 26.3738 50.1108 31.3943 46.487 33.1892C45.5473 33.6564 44.973 33.7145 38.9114 34.8503C38.1786 33.2065 37.1625 31.667 36.5144 30.0554C34.8306 25.8588 36.8924 23.2126 39.5862 23.2126Z" fill="#9F217E"/>
<path d="M5.09106 55.7976C5.06469 55.8698 5.02807 55.9704 4.9934 56.0534C-0.208893 54.8471 -2.80554 63.0406 4.57836 64.6774C5.36791 64.8523 6.16576 64.9362 6.93676 65.0173C9.4508 65.2831 9.00055 65.3571 9.32787 65.3571C9.61987 65.3571 9.89233 65.1862 10.0139 64.9089C12.0223 60.3481 12.4036 59.6423 12.5569 58.5554C12.7605 57.111 12.2585 55.6149 11.2468 54.6501C9.29064 52.7859 5.99717 53.2969 5.09106 55.7976ZM11.0715 58.3464C10.9807 58.9919 10.6936 59.6423 10.4163 60.2722L8.88305 63.7546C6.75587 63.3886 2.85831 63.5456 1.73168 61.1052C1.29125 60.1511 1.5266 58.8796 2.27905 58.1472C2.79681 57.643 3.54356 57.3939 4.25658 57.4274C4.3414 57.4312 4.84337 57.5851 5.2058 57.5837C6.29883 57.5583 6.46085 56.2191 6.64867 55.9528C8.06304 53.9489 11.4879 55.3916 11.0715 58.3464Z" fill="#9F217E"/>
<path d="M18.1999 64.9323C18.28 65.2722 18.5832 65.5095 18.9289 65.5095C19.1657 65.5095 18.0868 65.5441 21.8503 65.3913C22.3601 65.3718 22.9382 65.3483 23.5105 65.1618C26.5947 64.1566 26.3455 59.9171 23.4573 59.4548C23.2673 59.4235 23.0862 59.4382 22.9236 59.4557C22.7318 58.7214 22.0469 57.8983 21.1233 57.5681C19.9641 57.153 18.6135 57.5309 17.8381 58.4841C16.1467 60.5621 17.8342 63.3969 18.1999 64.9323ZM21.4934 59.9274C21.6603 60.7155 22.0446 61.0604 23.0344 60.9528C23.1042 60.945 23.1721 60.9313 23.219 60.9352C24.5867 61.1558 24.6168 63.2215 23.0456 63.736C22.5792 63.8881 22.2252 63.876 19.4924 63.986C19.2452 63.1992 18.9027 62.4272 18.7243 61.6882C17.9373 58.4328 21.1475 58.2889 21.4934 59.9274Z" fill="#9F217E"/>
<path d="M51.4734 5.529C51.2712 5.89326 51.2131 6.20283 51.1707 6.42842C51.1465 6.55531 51.1332 6.60554 51.1174 6.63826C38.115 3.89829 36.1075 17.1412 25.0564 26.0925C21.0491 29.3396 16.5471 31.4187 12.7058 31.7976C12.5557 31.8121 12.4295 31.8804 12.32 31.9682C10.9776 32.3241 10.7101 33.3531 11.3303 34.6204C11.4492 35.8257 13.5116 37.9911 13.9919 38.4604C16.2268 40.6439 18.7167 42.5604 21.3795 44.195C21.0731 48.1435 25.5072 50.7912 28.829 48.7401C31.2821 50.0332 36.915 53.7359 47.6071 57.0056C49.5714 57.6064 51.6361 58.1483 53.659 57.7916C54.0306 57.7261 54.4085 57.6182 54.717 57.4098C55.2065 57.2645 55.5815 57.0264 55.7849 56.654C56.409 55.5165 55.3644 54.1187 54.5002 53.1443C54.4914 53.0276 54.4643 52.9116 54.3982 52.8054C51.971 48.9048 52.7491 45.9463 54.1011 41.6672C54.6223 40.3489 54.8867 39.7909 59.7797 28.7642C61.1109 25.7642 62.0721 23.3469 62.2128 20.0679C62.3447 16.9916 61.4407 13.7957 58.9846 11.4743C58.8428 11.3078 58.6921 11.1477 58.5434 10.986C59.6881 10.3648 60.139 8.72273 59.4525 7.61177C60.7479 6.57942 61.396 4.66564 60.6071 2.89466C59.8842 -0.00422502 56.4692 -0.898768 54.5422 1.00556C53.8311 1.70771 53.3708 2.96846 53.4365 4.12525C53.4174 4.12538 53.4025 4.11793 53.3831 4.11885C52.5154 4.1501 51.7219 5.08174 51.4734 5.529ZM52.7844 6.25752C53.0328 5.81125 53.5412 5.54339 53.4412 5.61689C53.6564 5.61689 57.4042 7.24862 57.7263 7.94892C57.9781 8.49665 57.4832 9.16975 57.1248 9.61244C55.7498 8.42929 54.3799 7.60398 52.5715 7.01747C52.6584 6.71313 52.6592 6.48316 52.7844 6.25752ZM29.196 38.6736L28.4586 39.7719C25.9213 38.3832 23.0338 39.559 21.906 41.8649C21.8836 41.8502 21.8641 41.8365 21.8417 41.8217C21.8444 41.8107 21.8471 41.8002 21.8497 41.7891C21.8458 41.7994 21.8445 41.8107 21.8406 41.821C14.4044 36.9033 12.2924 34.038 12.4934 33.4743C12.5752 33.364 12.7689 33.2968 13.0441 33.2648C16.407 32.8968 26.1359 37.2199 29.196 38.6736ZM54.469 55.9343C53.7498 56.9187 45.3377 54.9606 31.8269 47.739C31.3876 47.5053 30.9561 47.2666 30.5249 47.0285C31.2411 45.8169 31.3245 44.5211 30.8983 43.2716C30.7521 42.2762 30.3116 41.381 29.6539 40.6822L30.5632 39.3294C44.5805 46.1938 55.0784 54.2789 54.469 55.9343ZM23.0169 43.1872C23.0169 43.1872 23.0167 43.1879 23.0178 43.1833C23.3621 41.7282 24.698 40.6716 26.1941 40.6716C29.1922 40.6716 30.6016 44.4175 28.3855 46.4167C28.3795 46.4221 28.3811 46.4206 28.3811 46.4206C27.7781 46.9733 27.0012 47.278 26.1941 47.278C24.1095 47.278 22.5016 45.3021 23.0169 43.1872ZM40.5549 10.7741C44.2551 7.50577 47.6232 7.75085 47.5232 7.77314C50.2791 7.78291 52.4739 8.32783 54.4294 9.48896C56.3391 10.6228 58.2771 12.6374 59.3665 14.6228C61.9439 19.3165 58.6223 26.345 56.3416 31.5632C53.2237 38.6929 53.3476 39.2778 52.8616 40.614C51.7195 44.2083 50.7723 47.22 51.7435 50.5609C43.2541 43.5562 25.9933 34.6253 17.0219 32.3666C29.7651 28.0646 35.2718 15.4406 40.5549 10.7741ZM55.596 2.07197C56.1746 1.50166 57.1838 1.34443 57.9431 1.70967C59.5999 2.50884 59.6969 4.9785 57.9294 6.03193C57.9049 6.04652 57.8908 6.07026 57.8686 6.08711C57.0319 5.57552 55.9793 5.06877 55.086 4.67298C54.7269 4.01936 54.9855 2.67561 55.596 2.07197Z" fill="#9F217E"/>
<path d="M54.7112 21.9675C54.5574 22.3522 54.7439 22.7888 55.1282 22.9431C55.5216 23.0979 55.9517 22.9047 56.1037 22.5261C57.4021 19.2878 56.8352 15.4333 54.6599 12.7057C54.4006 12.3825 53.9299 12.3298 53.6057 12.5876C53.282 12.8454 53.2287 13.3171 53.487 13.6413C55.3034 15.9177 55.7956 19.2643 54.7112 21.9675Z" fill="#9F217E"/>
<path d="M19.1575 44.2829C18.7639 44.1511 18.3401 44.3659 18.2097 44.7585C17.5183 46.8445 18.2337 49.2605 19.9495 50.6345C20.0877 50.7448 20.2532 50.7986 20.4177 50.7986C21.1259 50.7986 21.4375 49.9034 20.887 49.4626C19.6702 48.489 19.1433 46.7097 19.6336 45.2312C19.7639 44.8376 19.551 44.4138 19.1575 44.2829Z" fill="#9F217E"/>
<path d="M14.4763 41.321C14.0808 41.197 13.6604 41.4187 13.5373 41.8142C12.3518 45.6296 13.1897 49.9177 15.7248 53.0056C15.9872 53.3259 16.4599 53.3724 16.7805 53.1101C17.1003 52.8474 17.1467 52.3747 16.884 52.0544C14.6995 49.3923 13.948 45.5476 14.97 42.2595C15.093 41.864 14.8718 41.4431 14.4763 41.321Z" fill="#9F217E"/>
</svg>
