<svg width="65" height="61" viewBox="0 0 65 61" fill="none" xmlns="http://www.w3.org/2000/svg">
<path d="M30.186 14.8382C30.5518 14.9092 30.8943 14.7121 31.0278 14.3909C32.7121 10.3537 32.9973 9.79311 33.1079 8.87434C33.2612 7.59895 32.7895 6.29035 31.8764 5.45832C30.4025 4.11727 27.944 4.15441 26.7212 5.95637C26.555 6.20203 26.4751 6.48987 26.3901 6.72688C23.6049 6.09518 21.1754 9.16428 22.4883 11.8489C23.3154 13.5423 25.1894 14.1448 26.2334 14.3538C27.5392 14.6152 28.9782 14.592 30.186 14.8382ZM23.8359 11.1907C23.0693 9.62374 24.4954 7.829 26.063 8.19074C26.2305 8.22981 26.4424 8.28059 26.6714 8.26692C27.6813 8.22084 27.8205 7.02562 27.9634 6.79817C29.1014 5.1194 31.9068 6.29296 31.6186 8.69465C31.5385 9.36129 31.3474 9.72926 29.873 13.263C27.9177 12.9815 24.8087 13.1817 23.8359 11.1907Z" fill="white"/>
<path d="M42.4492 6.45538C43.4551 4.0444 43.6569 3.65226 43.7314 3.03058C43.8354 2.16339 43.5136 1.27277 42.8901 0.704406C41.6533 -0.420269 39.6906 0.0171096 39.1689 1.3587C36.1481 1.02766 35.0472 5.78024 39.2104 6.60773C40.0399 6.77344 40.9023 6.75784 41.6079 6.90167C41.9697 6.97262 42.3147 6.77774 42.4492 6.45538ZM38.0791 4.27081C37.838 3.77804 38.0553 3.0376 38.7475 2.88019C39.2199 2.77023 40.1985 3.35847 40.5629 1.9007C41.0723 1.14483 42.3807 1.6913 42.2421 2.85187C42.1985 3.21237 42.0777 3.44913 41.291 5.33527C40.3081 5.21791 38.5646 5.26187 38.0791 4.27081Z" fill="white"/>
<path d="M7.41597 27.1224C7.50423 27.2764 7.64424 27.3682 7.7972 27.4283C7.91243 27.6126 8.09706 27.7508 8.32955 27.7806C8.37844 27.7869 8.4327 27.7855 8.48287 27.7899C8.74214 30.1753 9.37252 32.1146 10.4428 33.6507C12.2709 36.2953 15.5036 37.7462 18.3476 36.9358C20.3481 36.3636 22.06 34.7317 23.0454 32.4573C23.7871 30.7464 24.0477 28.9058 24.2006 27.1243C24.345 27.0923 24.4842 27.0308 24.5922 26.9134C28.218 22.9921 24.7843 14.8959 18.1157 15.8072C18.137 12.7871 14.1426 11.2172 11.3086 13.9886C9.79483 15.4714 9.7692 17.1645 10.6258 18.2419C8.06602 19.7957 5.70893 24.1486 7.41597 27.1224ZM17.937 35.4935C15.5268 36.179 12.9619 34.6556 11.6748 32.7952C10.7614 31.4841 10.2171 29.7975 9.98073 27.7032C13.2411 27.1312 17.7252 24.2855 19.8491 21.5023C20.3154 23.4332 21.1315 25.2588 22.7538 26.3798C22.6149 28.2261 22.4077 30.1583 21.6694 31.8616C20.875 33.6946 19.479 35.0521 17.937 35.4935ZM11.8745 17.4212C10.8586 16.5075 12.3953 14.3171 14.2675 14.0677C15.8473 13.8684 16.9057 15.094 16.5506 16.1951C15.7365 16.4979 14.9727 16.936 14.3203 17.5169C13.5358 17.3465 12.7546 17.4063 12.0222 17.6194C11.9827 17.5483 11.9384 17.4786 11.8745 17.4212ZM14.2954 19.0628C14.5654 19.1507 14.8647 19.0804 15.0664 18.8763C16.5205 17.3958 18.9077 16.8372 20.8691 17.5179C23.988 18.5975 25.5224 22.7654 23.9016 25.3456C21.9386 24.2303 21.3189 21.7422 20.9428 19.2181C20.8255 18.4303 19.7117 18.3453 19.4824 19.1136C18.581 22.1264 11.9755 26.5528 8.68477 26.2979C7.73244 24.5145 8.89302 22.0926 10.2021 20.5413C11.1025 19.4739 12.767 18.556 14.2954 19.0628Z" fill="white"/>
<path d="M47.5839 34.1761C45.5751 34.5091 42.3915 35.5413 40.4511 36.7972C39.4026 37.471 38.4519 38.2 37.6033 38.961C35.9743 39.3042 35.3788 39.8267 34.6835 40.4798C34.4711 40.679 33.8246 41.2933 33.6772 41.2161C33.005 40.8974 32.6501 39.9713 30.3246 39.3587C28.9023 38.9847 27.4448 39.0062 26.1103 39.4232C25.3735 39.6539 24.6826 40.0085 24.0564 40.4555C21.1542 38.9213 17.9866 38.2091 14.7499 38.7513C7.80086 39.9515 2.71949 44.3317 0.0468135 50.5599C-0.131691 51.0936 0.136296 51.7478 0.961181 51.8671L1.50738 53.0267C8.98749 53.6649 15.969 53.8529 24.1019 53.8336C26.8257 56.6003 30.3408 58.1166 33.2665 60.5228C33.3474 60.5894 33.4395 60.6305 33.5349 60.6582C33.5323 60.6621 33.5294 60.6656 33.5269 60.6695C34.0432 61.0164 34.7388 60.9984 35.3203 60.7767C36.0553 60.4963 36.2753 60.2534 40.317 56.9627C42.8935 54.8648 45.494 52.7118 46.62 49.5805C52.7582 49.6962 59.2994 49.7139 63.7958 49.723L64.2126 48.6408L64.2739 48.64C64.737 48.6276 65.0788 48.2046 64.9926 47.7493C64.4286 44.7962 63.2075 41.9163 61.4604 39.4193C59.0717 35.9996 53.1261 33.2968 47.5839 34.1761ZM53.8348 36.1346C51.5181 38.3559 47.9685 38.395 45.5834 36.2C46.3603 35.9649 50.8327 35.1728 53.8348 36.1346ZM20.6793 40.6641C18.5005 42.7048 15.1934 42.796 12.906 40.7382C15.3852 40.0019 17.6522 39.7346 20.6793 40.6641ZM11.3296 41.2703C14.3109 44.6485 19.3918 44.4865 22.2123 41.2255C22.4359 41.3206 22.6453 41.4283 22.8605 41.5321C20.4152 44.1714 20.0031 47.7744 22.0983 51.2782C16.1362 51.3233 7.83107 51.1574 1.73138 50.4603C3.88703 45.8441 7.45625 42.7361 11.3296 41.2703ZM24.0802 51.5343C24.0632 51.5144 24.0512 51.4913 24.0323 51.4733C23.0107 50.1197 22.1835 48.4156 22.2524 46.4847C22.3422 43.9749 24.1533 41.6077 26.558 40.8548C28.199 40.3402 30.0295 40.6126 31.4853 41.4339C31.9943 41.7205 32.3267 42.2362 33.0356 42.5716C34.5189 43.2763 35.7125 41.3442 36.4814 40.9378C39.6258 39.2712 43.225 41.1216 44.3471 44.2679C45.0663 46.2835 44.707 48.6908 43.4086 50.5501C42.3703 52.0358 41.4682 52.6463 33.7372 58.9788C30.4202 56.4011 26.5724 54.7915 24.0802 51.5343ZM47.0952 47.1937C47.2226 43.7209 45.0034 40.0736 41.14 39.1917C40.7831 39.0677 40.4194 38.9715 40.0475 38.909C41.3 37.983 42.0936 37.4691 44.0165 36.7351C47.1009 40.2574 52.4108 40.123 55.3608 36.6937C57.5607 37.6053 59.2013 38.8048 60.2309 40.2786C61.684 42.3558 62.746 44.7152 63.33 47.1527C57.56 47.236 53.8064 47.3112 47.0952 47.1937Z" fill="white"/>
<path d="M42.273 22.8013C42.5034 24.4687 43.0051 26.2843 44.0932 27.8558C45.5483 29.9563 47.8564 31.1985 50.0864 31.1985C51.7617 31.1985 52.7252 30.5181 53.0252 30.3898C55.7744 29.0749 56.5253 26.2173 57.0648 23.2093C59.4406 22.9057 59.6807 19.613 58.2973 18.6569C59.428 14.5624 57.4641 10.682 54.1367 9.4495C52.0346 8.66825 49.3671 9.24247 47.7124 10.7727C44.6469 9.9744 41.0601 12.7387 41.7475 18.1502C40.7312 18.4075 40.2124 19.3781 40.3208 20.4124C40.4335 21.4904 41.3885 22.4559 42.273 22.8013ZM45.3266 27.0022C44.2486 25.4457 43.7002 23.389 43.6029 20.587C44.6576 19.9004 45.4329 18.8506 45.7944 17.6614C48.2246 18.7786 51.1513 18.678 53.5004 17.4026C53.866 18.804 54.6764 20.0857 55.7717 21.0309C55.6458 22.7366 55.4494 24.5159 54.7568 26.1155C54.0078 27.846 52.6914 29.1263 51.2348 29.5413C48.9624 30.1936 46.541 28.7552 45.3266 27.0022ZM44.6337 12.9476C45.4799 12.1927 46.7109 11.9349 47.6259 12.3235C47.9213 12.4466 48.2631 12.3704 48.4765 12.1321C49.6552 10.8147 51.9609 10.2444 53.6152 10.8558C56.906 12.0763 58.0191 16.2703 56.3545 19.5354C55.4707 18.6082 54.898 17.3759 54.7944 16.1038C54.7474 15.5209 54.0706 15.2064 53.5966 15.5647C51.3593 17.2444 48.021 17.3772 45.6557 15.8841C45.1865 15.5858 44.5558 15.8898 44.5083 16.4544C44.4326 17.3418 44.0131 18.1966 43.3809 18.8322C42.9652 16.7277 43.026 14.3821 44.6337 12.9476Z" fill="white"/>
<path d="M28.0155 42.0335C24.4714 43.2033 23.2074 47.6019 25.5902 50.4739C25.8541 50.7927 26.327 50.8374 26.6464 50.5725C26.9652 50.3079 27.0092 49.8352 26.7445 49.5169C25.039 47.4587 25.9467 44.2974 28.4862 43.4573C28.8793 43.3274 29.0932 42.9036 28.9633 42.51C28.8329 42.1165 28.4101 41.9007 28.0155 42.0335Z" fill="white"/>
<path d="M27.3652 51.4212C27.1846 51.64 27.1357 51.9515 27.2666 52.224C27.4248 52.5536 27.8304 52.7365 28.1719 52.6429C28.5205 52.5501 28.8061 52.1468 28.7788 51.7874C28.7252 51.0811 27.7673 50.7742 27.3652 51.4212Z" fill="white"/>
</svg>
