<svg width="60" height="65" viewBox="0 0 60 65" fill="none" xmlns="http://www.w3.org/2000/svg">
<path d="M31.4388 4.34107C32.2748 4.51098 32.7719 5.36881 32.5228 6.17066C32.3741 6.65238 32.7348 7.14234 33.2396 7.14234C33.5599 7.14234 33.8568 6.9358 33.9564 6.61402C34.1966 5.83619 34.0931 4.95289 33.6781 4.25123C33.263 3.55005 32.5384 3.03443 31.7396 2.87134C31.3343 2.78931 30.9378 3.05005 30.8548 3.4563C30.7718 3.86207 31.0336 4.25806 31.4388 4.34107Z" fill="white"/>
<path d="M31.931 7.73315H31.847C31.433 7.73315 31.139 8.06909 31.139 8.48315C31.139 8.89722 31.517 9.23315 31.931 9.23315C32.3451 9.23315 32.681 8.89722 32.681 8.48315C32.681 8.06909 32.3451 7.73315 31.931 7.73315Z" fill="white"/>
<path d="M4.05635 61.1272C5.79958 62.0673 7.49038 62.5949 9.5201 62.9031C24.658 65.2016 40.6475 66.0102 55.0592 61.4338C56.608 60.942 58.2855 60.259 58.8668 58.9377C59.4987 57.5015 58.5004 55.8421 57.0279 54.9637C56.0666 54.3904 54.947 54.0821 53.7957 53.8581C52.9683 52.1028 51.2497 51.5183 49.3773 51.01C49.349 51.0021 49.3216 51.0085 49.2934 51.0039C49.4338 43.5285 49.5755 47.0593 49.014 38.9636C49.0061 38.8489 48.9702 38.7452 48.9195 38.651C48.775 37.9281 47.8837 37.1966 44.1347 36.5675C44.0773 36.4974 44.02 36.4273 43.9625 36.3573C44.2991 35.7363 44.2449 35.5238 44.2767 33.9099C44.355 29.8638 44.4953 31.0093 44.0579 25.7556C44.0513 25.67 44.0227 25.5927 43.9902 25.5183C43.8984 24.8988 43.286 24.2817 40.1359 23.7989C40.0891 23.1686 40.1213 23.0956 39.9928 22.8711C40.2653 22.293 40.1104 22.1875 40.2826 19.217C40.3554 17.9648 40.1521 15.2645 40.0943 15.0177C40.0719 14.4271 39.5982 13.4077 31.9046 12.979C33.4194 11.8035 34.7459 10.8332 35.6312 9.59837C36.8363 7.9177 37.1908 5.7097 36.554 3.83616C35.3431 0.278608 30.9433 -1.28385 28.1829 1.23802C28.0189 1.38841 27.7552 1.62913 27.6107 1.69993C27.2039 1.44088 26.8317 0.780015 25.2103 0.32786C21.3972 -0.735766 18.0709 2.20969 17.9036 5.58714C17.7533 8.64134 19.9779 10.9914 21.3177 12.1203C21.6412 12.393 21.9824 12.631 22.3209 12.8735C14.6706 13.1731 14.6481 14.366 14.6409 14.841C14.6402 14.8452 14.6438 14.8315 14.637 14.8699C14.6234 15.3738 14.6048 15.8948 14.5863 16.4221C14.4647 19.846 14.5012 20.3162 14.5667 21.9905C14.5899 22.4729 14.6306 23.1536 15.1489 23.6795C9.78121 24.3477 9.77962 25.2492 9.77962 25.8161C9.77962 25.8289 9.78432 25.8413 9.78493 25.8541C9.78487 25.8564 9.78359 25.8583 9.78353 25.8606C9.75927 27.7686 9.53554 34.6006 9.92684 36.4668C4.83803 37.25 4.10189 38.1541 4.10189 39.0193C4.10189 39.0317 4.10659 39.0439 4.10713 39.0563C4.10646 39.0682 4.10005 39.078 4.09993 39.0901C4.04861 43.4185 3.84293 47.7901 4.11922 52.3332C4.1086 52.3365 4.0978 52.3343 4.08724 52.3381C2.35384 52.9817 0.326495 53.9783 0.0345026 55.9875C-0.308127 58.3378 1.96405 59.9988 4.05635 61.1272ZM47.7591 52.6223C47.7425 53.2864 46.9544 54.1545 46.2298 54.5486C43.6886 55.9278 42.9927 56.0892 40.7757 56.6506C35.0892 58.0935 28.0951 58.5368 20.5443 57.9348C13.9258 57.406 11.7072 56.6194 10.2786 56.321C8.92904 55.9621 7.65365 55.6228 6.45443 54.9084C5.77669 54.5046 5.70931 53.8752 5.64779 52.7966L5.63118 52.5149C5.45086 49.7178 5.46339 47.099 5.5049 44.4962C7.51375 49.2132 14.2188 50.5146 18.8656 46.0251C20.2986 48.6099 23.1427 50.3474 26.1117 50.3474C29.0111 50.3474 31.807 48.7058 33.2718 46.2219C37.5798 49.9206 44.3323 49.4264 47.8769 44.3421C47.9391 45.8107 47.9377 45.549 47.7591 52.6223ZM47.6984 41.4509C47.689 41.4717 47.672 41.4866 47.6644 41.5085C46.723 44.2307 44.2933 46.3733 41.4749 46.967C38.6546 47.5608 35.5697 46.5803 33.6087 44.468C33.4349 44.2815 33.18 44.1965 32.9271 44.24C32.6761 44.2844 32.4652 44.4538 32.3665 44.6892C31.3382 47.1511 28.641 48.8972 25.9876 48.8459C23.3206 48.7927 20.7103 46.9382 19.7806 44.4372C19.6878 44.1867 19.4681 44.0051 19.2054 43.9592C18.9368 43.9123 18.6742 44.0119 18.5033 44.2165C15.4663 47.8337 10.7399 48.1909 8.07747 45.6467C6.837 44.4612 6.2538 42.6512 6.54384 41.0597C10.6192 42.7121 19.0912 43.8533 26.4554 43.8533C34.5904 43.8533 44.1681 42.378 47.6197 40.4153C47.6281 40.523 47.6904 41.3462 47.6984 41.4509ZM11.2573 27.283C14.3759 28.7712 21.7901 29.6902 27.1097 29.6902C33.0115 29.6902 39.8413 28.6383 42.6666 27.1522C42.8994 29.9327 42.8981 29.7105 42.7435 35.3635C42.7347 35.697 42.2396 36.2468 41.7034 36.5168C39.8421 37.4582 39.2816 37.5901 37.7826 37.9431L37.6224 37.9807C33.3421 38.9909 28.0765 39.302 22.3929 38.8791C16.2838 38.4263 14.2065 37.6079 12.7979 37.2071C11.3196 36.6637 11.3908 36.5294 11.306 35.2776C11.1225 32.6163 11.2024 30.0076 11.2573 27.283ZM16.0974 16.107C19.7362 17.1512 34.5364 17.6498 38.6994 16.2793C38.8612 18.6175 38.8035 18.1592 38.6644 22.1594C38.6595 22.281 38.3831 22.635 38.0042 22.82C36.633 23.4893 36.284 23.5611 35.0462 23.8342C28.0058 25.3923 18.4992 23.9588 16.3167 22.7082C16.1292 22.6013 16.0921 22.4831 16.0648 21.9197C16.0575 21.2906 15.9222 21.1243 16.0974 16.107ZM28.4178 15.5999C28.7645 15.4365 28.7315 15.428 30.0777 14.396C33.5271 14.5317 36.0032 14.818 37.4144 15.095C35.7191 15.3783 32.572 15.6172 28.4178 15.5999ZM19.4017 5.66136C19.5219 3.23728 21.9041 0.963857 24.807 1.7722C26.245 2.17559 26.2098 2.68857 27.0081 3.07981C28.2279 3.68111 29.1937 2.18761 29.722 1.9177C33.3755 0.0270221 37.2388 4.78084 34.4124 8.72434C33.4809 10.0243 31.7653 11.1681 27.9271 14.1594C27.6527 14.3738 27.2679 14.384 26.9935 14.1858C25.4378 13.0564 23.7101 12.1755 22.2845 10.9734C20.3656 9.35667 19.3148 7.42015 19.4017 5.66136ZM24.4868 14.318C25.0348 14.665 25.5904 15.0209 26.1126 15.3996C26.2194 15.4771 26.3418 15.5174 26.4579 15.5736C22.1138 15.4776 19.0064 15.1667 17.3411 14.8567C18.7497 14.6059 21.1844 14.3695 24.4868 14.318ZM17.6201 24.9294C18.246 25.26 19.0541 25.4299 19.5641 25.5745C25.9741 27.3919 33.0884 27.4156 39.8418 25.2749C41.0629 25.4616 41.7606 25.6472 42.1449 25.7844C40.513 26.6286 34.7845 28.1902 27.1097 28.1902C19.638 28.1902 13.514 26.7654 11.6937 25.8767C12.5104 25.6001 14.3131 25.22 17.6201 24.9294ZM10.7625 37.8622C12.2239 38.9994 16.7621 39.7713 18.7348 40.024C27.7273 41.8569 37.0983 41.2768 45.6291 38.3918L45.6283 38.3907C46.5578 38.6163 47.0488 38.8159 47.2845 38.9441C45.7659 40.0989 37.2406 42.3533 26.4554 42.3533C15.5326 42.3533 7.25326 40.199 5.76204 39.0598C6.18874 38.821 7.43093 38.3379 10.7625 37.8622ZM4.24385 53.8861C4.37166 54.7369 4.69338 55.6055 5.68685 56.1975C10.4759 59.0479 28.2782 61.3674 41.1449 58.1047C43.4769 57.5143 44.2679 57.3205 46.9456 55.8664C48.1154 55.2302 49.227 53.9615 49.2617 52.5343C50.0084 52.74 50.7612 52.9674 51.3861 53.3572C52.8645 54.278 53.0232 55.7206 51.8226 56.9192C51.221 57.5202 50.3851 57.9343 49.6488 58.2751C44.8714 60.4865 39.4622 61.7351 32.6253 62.2043C24.7754 62.7392 11.3276 62.1876 4.37825 59.3078C3.6595 59.01 2.847 58.6277 2.26302 58.0466C1.71712 57.5046 1.43197 56.7986 1.51888 56.2038C1.68166 55.0844 2.99471 54.3806 4.24385 53.8861Z" fill="white"/>
<path d="M19.6019 19.7063H19.6742C20.0883 19.7063 20.3881 19.3704 20.3881 18.9563C20.3881 18.5422 20.016 18.2063 19.6019 18.2063C19.1879 18.2063 18.8519 18.5422 18.8519 18.9563C18.8519 19.3704 19.1879 19.7063 19.6019 19.7063Z" fill="white"/>
<path d="M25.5472 23.3445C26.0041 23.3445 26.349 22.9373 26.2904 22.4973C26.304 22.4104 26.3021 22.32 26.2835 22.2292C26.0982 21.3234 24.7391 21.4857 24.7249 22.4738C24.7191 22.8825 25.1051 23.3445 25.5472 23.3445Z" fill="white"/>
<path d="M35.057 20.176C36.0585 20.176 36.0603 18.5588 35.057 18.5588C34.6429 18.5588 34.307 18.8948 34.307 19.3088V19.426C34.307 19.8401 34.6429 20.176 35.057 20.176Z" fill="white"/>
<path d="M25.7806 37.7903C26.7823 37.7903 26.7838 36.1726 25.7806 36.1726C25.3666 36.1726 25.0306 36.5085 25.0306 36.9226V37.0403C25.0306 37.4543 25.3666 37.7903 25.7806 37.7903Z" fill="white"/>
<path d="M13.9486 33.6296C14.0814 33.8884 14.3441 34.0373 14.6165 34.0373C15.1699 34.0373 15.5409 33.4478 15.2825 32.945L15.1634 32.7106C14.9749 32.3435 14.5257 32.196 14.1546 32.3855C13.7855 32.5744 13.64 33.0266 13.8294 33.3952L13.9486 33.6296Z" fill="white"/>
<path d="M23.0795 32.5061H23.1967C23.6107 32.5061 23.9467 32.1702 23.9467 31.7561C23.9467 31.342 23.6107 31.0061 23.1967 31.0061H23.0795C22.6654 31.0061 22.3295 31.342 22.3295 31.7561C22.3295 32.1702 22.6654 32.5061 23.0795 32.5061Z" fill="white"/>
<path d="M41.6322 32.2712C42.6338 32.2712 42.6353 30.6536 41.6322 30.6536C40.6305 30.6536 40.629 32.2712 41.6322 32.2712Z" fill="white"/>
<path d="M34.9398 36.968C35.3423 36.968 35.487 36.7053 35.5873 36.6311C35.8803 36.3381 35.8803 35.8635 35.5873 35.5706C35.2943 35.2776 34.8197 35.2776 34.5267 35.5706L34.4096 35.6877C33.9347 36.1626 34.2789 36.968 34.9398 36.968Z" fill="white"/>
<path d="M33.8109 31.7561C33.8109 30.7545 32.1927 30.7528 32.1927 31.7561C32.1927 32.7576 33.8109 32.7594 33.8109 31.7561Z" fill="white"/>
<path d="M19.7914 37.5554C20.2054 37.5554 20.5414 37.2195 20.5414 36.8054V36.3357C20.5414 35.9216 20.2054 35.5857 19.7914 35.5857C19.3773 35.5857 19.0414 35.9216 19.0414 36.3357V36.8054C19.0414 37.2195 19.3773 37.5554 19.7914 37.5554Z" fill="white"/>
<path d="M12.2758 29.8049C13.2773 29.8049 13.279 28.1877 12.2758 28.1877C11.8617 28.1877 11.5258 28.5237 11.5258 28.9377V29.0549C11.5258 29.469 11.8617 29.8049 12.2758 29.8049Z" fill="white"/>
</svg>
