<svg width="65" height="63" viewBox="0 0 65 63" fill="none" xmlns="http://www.w3.org/2000/svg">
<path d="M8.59257 46.4528C9.41982 46.4528 10.0319 45.9005 10.1639 45.1676C10.2898 44.4672 9.90733 43.538 9.17753 43.5084C7.81031 42.6429 6.29007 43.955 6.81327 45.3092C6.98222 45.7448 7.85426 46.4528 8.59257 46.4528Z" fill="white"/>
<path d="M64.0301 37.1549C64.0301 37.037 64.0089 36.925 63.9952 36.8107C63.9986 36.7822 64.0084 36.7554 64.0112 36.7267C64.0096 36.7568 63.9993 36.7821 63.9952 36.8107C63.8412 35.5248 62.8577 34.4973 61.5889 34.287C61.8663 23.1261 53.8478 11.0306 40.2204 9.30578C42.0725 7.78352 42.9074 7.17382 43.4881 6.33752C45.9162 2.85621 42.3229 -1.3628 38.9783 0.424436C38.6857 0.578962 38.4557 0.832228 38.2488 1.01526C37.9473 0.741143 37.5361 0.461965 36.8299 0.275999C33.0536 -0.729969 29.5892 4.23583 34.2772 8.0719C34.7573 8.46502 35.2657 8.80365 35.7693 9.13061C20.9888 9.80134 11.978 22.5291 12.326 34.3649C12.3279 34.4277 12.3502 34.4832 12.3666 34.5411C9.84677 35.7689 10.3126 39.6137 13.0875 40.1435C14.6403 41.0094 15.4015 40.8062 31.8615 41.0083C30.658 41.7131 28.8231 43.0039 27.8504 43.3795C26.0438 44.0848 24.5864 43.6772 22.4969 43.528C18.8146 43.2816 16.4562 44.6477 12.9479 44.8746C12.8983 44.3536 12.8505 43.8342 12.7781 43.2955C12.5828 41.8346 11.2781 40.6715 9.6756 40.5289C6.47067 40.2406 6.07164 40.4633 4.23615 40.3893C3.27911 40.3531 2.44806 40.3239 1.89923 40.8512C1.87433 40.8751 1.86584 40.9106 1.84302 40.936L1.45978 41.1578C0.724304 41.6682 0.361877 42.6897 0.327148 43.5842C-0.0391011 53.0262 -0.297026 54.07 0.687073 54.7645C1.08188 55.4494 2.09068 55.109 2.07306 54.3619C1.98524 50.8471 2.94562 47.1454 2.95294 42.0094C2.95294 41.9684 2.95587 41.941 2.95392 41.9283C3.26601 41.8003 4.53034 41.9457 5.57306 41.8981C6.70001 41.8483 8.03497 41.8883 9.54279 42.0231C10.4383 42.1022 11.1902 42.735 11.2918 43.4948C12.0281 48.9781 11.5359 53.4254 9.6424 58.2408C7.12003 57.7838 4.74013 57.2447 2.13361 56.7877C1.7254 56.7242 1.33771 56.9899 1.26544 57.3981C1.19415 57.8063 1.46759 58.1949 1.87579 58.2662C4.56547 58.7345 7.2089 59.3397 9.98126 59.8258C10.3513 59.8847 10.6761 59.6816 10.8035 59.3727C11.1582 58.514 11.4556 57.67 11.7271 56.8298C24.7062 64.3132 39.6133 64.6677 51.7639 57.4337C53.5256 56.3848 55.2653 55.071 56.38 53.3967C57.029 52.7507 57.5742 52.001 57.6785 51.2028C57.8284 50.055 57.0409 48.8492 55.4861 48.7828C54.4223 48.7946 53.4222 49.4066 52.6805 49.5953C50.0931 50.4907 48.1307 51.3049 46.1795 51.7115C43.9031 52.1871 41.324 52.7252 38.6795 52.7467C35.3029 52.7741 31.3818 52.7535 28.3596 52.1878C31.4072 50.9299 33.2203 49.7852 35.0799 48.3834C35.1121 48.3629 35.1385 48.3424 35.1502 48.3287C35.3135 48.2397 36.8843 46.9976 38.3465 45.9928C39.2473 45.3693 40.1279 44.6502 40.3699 43.5729C40.603 42.7368 40.4892 41.8832 39.9101 41.1071C57.2103 41.3194 59.1537 41.6838 61.6449 40.1451C62.9995 39.8938 64.0301 38.7083 64.0301 37.2828V37.1549ZM38.8943 42.3141C39.0552 42.74 38.9682 43.214 38.7586 43.608C38.4744 44.0602 38.0174 44.3971 37.4949 44.7584C36.7217 45.2896 34.3647 47.0281 34.2996 47.1041C33.8527 47.3539 31.2958 49.702 25.9928 51.4747C25.8111 51.3834 25.6445 51.2891 25.5096 51.1881C25.1776 50.9391 24.7078 51.0074 24.4598 51.3395C24.2117 51.6715 24.2791 52.1412 24.6111 52.3893C27.3337 54.4245 35.4488 54.2257 38.6707 54.2467C39.7081 54.1373 40.2855 54.4741 46.4861 53.1803C48.4941 52.7617 50.4615 51.9611 53.1024 51.0328C54.0376 50.8085 55.4964 49.8786 56.0154 50.486C57.0262 51.6629 53.245 53.9251 52.1219 54.694C45.156 59.2809 36.7861 61.3159 28.2313 59.6754C23.0056 58.7003 17.2124 56.3544 12.6295 54.554C12.5649 54.4862 12.4869 54.4328 12.3988 54.3959C12.9964 51.8044 13.208 49.1927 13.0566 46.3699C16.5208 46.141 19.1955 44.784 22.4686 45.0358C24.7306 45.1944 26.263 45.6117 28.4442 44.7584C28.5399 44.7213 28.6522 44.6764 28.6776 44.6569C30.9257 43.749 34.3303 40.1438 37.7254 41.3073C37.9832 41.401 38.6092 41.6754 38.8514 42.1998L39.532 41.8854L38.8943 42.3141ZM37.0418 1.9674C37.2306 2.07527 37.38 2.31229 37.7635 2.49377C38.7071 2.93987 39.4282 1.89042 39.6824 1.74865C41.6518 0.699754 43.7948 3.27694 42.2567 5.48108C41.8388 6.08322 41.474 6.3341 38.2449 8.98791C37.27 8.26967 36.1171 7.64059 35.2283 6.91174C31.5875 3.93108 34.5605 0.571684 37.0418 1.9674ZM37.9496 10.6221C38.148 10.7124 38.319 10.7251 38.5292 10.6434C52.0882 11.5167 60.3606 23.2026 60.0908 34.2389H32.7085C27.8326 33.224 22.2882 34.8209 18.0143 32.0161C16.1561 30.7966 14.8711 28.5038 15.072 26.3778C18.3661 16.7624 27.0127 10.1775 37.9496 10.6221ZM13.8801 34.2389H13.8265C13.8262 34.2289 13.827 34.2189 13.8268 34.2089C13.8435 34.2205 13.8629 34.2281 13.8801 34.2389ZM12.2176 37.1549C12.2176 36.3737 12.8533 35.7389 13.6346 35.7389H61.1131C61.8943 35.7389 62.5301 36.3737 62.5301 37.1549V37.2828C62.5301 38.0641 61.8943 38.6989 61.1131 38.6989H13.6346C12.8533 38.6989 12.2176 38.0641 12.2176 37.2828V37.1549Z" fill="white"/>
<path d="M42.9891 15.5827C45.8153 16.5075 48.2127 18.5553 49.5653 21.2028C49.7544 21.5712 50.2059 21.7168 50.575 21.5289C50.9432 21.3405 51.0897 20.8883 50.9012 20.5192C49.369 17.5231 46.6561 15.2037 43.4559 14.1569C43.0574 14.028 42.6385 14.2428 42.5096 14.6364C42.3807 15.0299 42.5955 15.4537 42.9891 15.5827Z" fill="white"/>
<path d="M50.6355 23.5758L50.5046 23.8326C50.2491 24.3332 50.6152 24.9244 51.1716 24.9244C51.7715 24.9244 51.8923 24.3594 51.9714 24.2594C52.1599 23.8903 52.0134 23.4381 51.6453 23.2496C51.2751 23.0611 50.824 23.2096 50.6355 23.5758Z" fill="white"/>
<path d="M50.8944 10.1988C50.9823 8.73203 51.3143 7.29942 51.8807 5.94199C52.0399 5.55918 51.8592 5.12071 51.4774 4.96055C51.0956 4.80332 50.6561 4.98008 50.496 5.36387C49.8651 6.87754 49.495 8.47324 49.3963 10.109C49.3719 10.5221 49.6874 10.8775 50.1004 10.9029C50.505 10.9282 50.8686 10.6197 50.8944 10.1988Z" fill="white"/>
<path d="M56.7674 7.74277L53.4246 11.8629C53.1629 12.1842 53.2127 12.6568 53.534 12.9176C53.8531 13.1783 54.3282 13.1307 54.5887 12.8082L57.9314 8.68808C58.1931 8.36679 58.1433 7.89414 57.8221 7.6334C57.5017 7.37168 57.0262 7.42148 56.7674 7.74277Z" fill="white"/>
<path d="M57.9647 15.8541C58.3415 15.8541 58.2629 15.756 62.2206 13.4616C62.578 13.2516 62.6962 12.7916 62.4852 12.4352C62.2743 12.0787 61.8143 11.9557 61.4589 12.1705L57.5829 14.4586C56.9241 14.8456 57.2072 15.8541 57.9647 15.8541Z" fill="white"/>
</svg>
