<svg width="60" height="65" viewBox="0 0 60 65" fill="none" xmlns="http://www.w3.org/2000/svg">
<path d="M0.027077 16.9686C-0.0827863 17.368 0.151589 17.7811 0.550515 17.8905C3.38136 18.6714 4.21158 19.6795 4.75852 19.6795C5.50847 19.6795 5.79463 18.6926 5.15647 18.2938C3.84983 17.4764 2.4343 16.8543 0.949929 16.4452C0.548561 16.3338 0.137429 16.5692 0.027077 16.9686Z" fill="white"/>
<path d="M8.17937 15.5516C8.54998 15.366 8.69988 14.9158 8.51482 14.5457L5.79412 9.10627C5.60906 8.73518 5.15887 8.58772 4.78777 8.77033C4.41717 8.95588 4.26727 9.40608 4.45232 9.77619L7.17303 15.2156C7.35653 15.584 7.80583 15.7375 8.17937 15.5516Z" fill="white"/>
<path d="M11.2834 8.85533L10.5842 12.995C10.5153 13.4032 10.7907 13.7909 11.1989 13.8592C11.5866 13.9305 11.9921 13.6674 12.0636 13.245L12.7629 9.10533C12.8317 8.69713 12.5563 8.30943 12.1481 8.24107C11.736 8.1649 11.3522 8.44713 11.2834 8.85533Z" fill="white"/>
<path d="M59.0731 59.5936C58.2448 58.9863 57.2804 58.5702 56.2738 58.3658C56.8049 57.0632 56.794 56.7537 56.7574 45.5168C56.736 38.9463 56.6556 32.3759 56.5164 25.8068C56.3171 16.4143 56.6719 14.4358 55.8125 14.1573C53.9493 12.3731 46.3114 11.5971 41.7567 11.5649C41.8485 11.0573 41.9785 10.5588 42.1816 10.089C44.8673 9.86721 46.2116 7.05239 45.1394 4.76157C44.867 4.17954 44.4797 3.70981 44.1057 3.25668C43.5252 2.5534 42.9623 1.88602 43.134 0.877778C43.2417 0.244574 42.554 -0.223225 42.0042 0.111177C40.9343 0.764497 39.9168 1.75375 39.2117 2.82602C37.3189 5.70743 38.2447 8.88167 40.6553 9.86923C40.4473 10.4222 40.2962 10.9921 40.21 11.5721C36.0635 11.6402 27.4208 12.1072 26.9719 14.7987C26.947 14.9486 26.9564 15.1537 27.0486 15.3803C27.0388 18.9407 27.081 24.1584 27.0083 25.1231C24.4486 24.6262 21.3588 24.3472 18.327 24.3451C18.4119 23.839 18.5334 23.3419 18.7235 22.8728C21.627 22.5987 23.1305 18.7642 20.7791 15.4745L20.7786 15.4735C20.0403 14.4422 19.0086 13.5116 17.9475 12.9207C17.6897 12.7772 17.3704 12.7987 17.1336 12.9754C16.8967 13.1532 16.7859 13.453 16.8513 13.7411C17.2078 15.321 15.7765 16.1559 15.177 17.7528C14.5094 19.5336 15.1475 21.8354 17.2052 22.6502C17.0065 23.2078 16.8629 23.7824 16.7826 24.3671C12.648 24.4549 4.57362 24.9711 4.16676 27.6727C4.14277 27.861 4.18232 28.039 4.24513 28.2007L4.36939 55.1678C4.36939 57.1458 5.43998 58.1159 7.02656 59.1011C8.68971 60.5695 10.9417 61.4847 13.0787 61.9782C19.1053 63.3701 24.172 61.7226 27.3494 62.0976C31.8575 62.6298 35.7423 67.0248 54.4226 63.1923C56.1586 62.8362 58.0566 62.3307 59.2409 61.0974C59.6544 60.6669 59.5546 59.9466 59.0731 59.5936ZM54.8245 55.5877C54.9011 57.5956 53.8245 59.4608 52.0818 60.3387C50.6829 61.0438 49.0066 61.5877 47.7073 61.7596C41.7459 62.5446 38.6327 62.214 33.7322 60.9149C32.0637 60.4715 30.6043 59.7557 29.3943 58.786C28.8645 58.3612 28.5486 57.6707 28.5486 56.9383V34.9005C30.0386 35.834 31.7698 36.3524 32.355 36.386C32.8485 40.0297 37.5907 43.3141 40.7088 45.2752C40.9203 45.4083 41.1769 45.4229 41.3889 45.3358C43.1526 44.6239 45.198 43.7098 46.9944 42.3202C49.2709 40.5472 50.5832 38.455 50.8454 36.2332C51.2255 36.3795 52.8146 36.3698 54.3724 35.6898C54.4221 42.3379 54.5719 48.9859 54.8245 55.5877ZM10.3391 43.6692C10.8091 46.4474 14.3622 48.9183 16.7503 50.4198C16.9618 50.5528 17.2184 50.5674 17.4304 50.4803C20.7241 49.1514 24.1607 47.1282 24.707 43.619C25.1695 43.6461 25.5981 43.6263 26.2451 43.485C26.2167 47.24 26.2457 50.4108 26.3701 54.2635C26.4241 55.9377 26.0793 58.2289 26.9289 59.0913C25.9639 59.4837 24.9669 59.783 24.1262 59.9061C18.3975 60.7215 15.5031 60.4039 10.8157 59.12C9.22389 58.6913 7.83473 57.9872 6.68629 57.0252C6.17457 56.5975 5.8694 55.9032 5.8694 55.1639L5.80879 42.0105C6.94667 42.7464 9.23768 43.4514 10.3391 43.6692ZM11.7761 43.1698C11.5608 40.0975 15.1358 39.6404 16.0383 41.7127C16.1663 42.0077 16.4646 42.1873 16.7903 42.161C17.1111 42.1336 17.3782 41.9041 17.4544 41.5916C17.742 40.411 19.2546 39.4539 20.5706 39.6102C22.1096 39.7987 23.2976 41.2108 23.2752 42.825C23.2331 45.8594 20.0294 47.7812 17.2249 48.9442C15.3622 47.7482 11.9263 45.3755 11.7761 43.1698ZM33.8015 35.953C33.4998 31.6412 38.5747 30.966 39.863 33.9266C40.1423 34.5704 41.1077 34.5107 41.2796 33.8036C41.6897 32.117 43.7639 30.7889 45.6375 31.0184C47.7805 31.2811 49.4353 33.244 49.4036 35.4872C49.3684 38.0399 47.5725 39.9686 46.0745 41.1356C44.5408 42.3211 42.7664 43.1483 41.1834 43.7997C38.6176 42.1622 34.0073 38.9761 33.8015 35.953ZM54.3705 34.0053C52.5498 35.0795 51.2389 34.6971 50.8507 34.8434C50.5808 32.1324 48.4942 29.857 45.8201 29.5301C43.7273 29.2616 41.5183 30.3944 40.4182 32.0887C37.8389 29.3362 32.9145 30.5488 32.3427 34.8539C30.0517 34.3602 28.8917 33.2747 28.5486 33.1384V16.6007C31.0683 17.7889 36.4511 18.8895 41.8904 18.8895C46.6163 18.8895 51.8746 18.0238 54.5153 16.7343C54.3899 22.4695 54.3424 28.2348 54.3705 34.0053ZM26.2554 41.9379C25.6541 42.121 25.2638 42.1278 24.718 42.1302C24.4279 40.072 22.8063 38.3725 20.7532 38.1219C19.1721 37.9276 17.5115 38.7274 16.6018 39.9657C14.5721 38.0475 10.9312 38.8753 10.3536 42.1371C9.14778 41.8598 7.20228 41.2001 6.50025 40.6766C6.2906 40.5202 6.03089 40.5036 5.80226 40.5858L5.75105 29.473C9.47234 31.3003 18.6977 32.6287 26.6431 30.7564C26.4635 34.0455 26.3208 37.0132 26.2554 41.9379ZM41.7376 2.17856C42.1602 3.68962 43.2688 4.30368 43.781 5.39829C44.1272 6.13657 44.0623 7.06723 43.6204 7.71274C43.1716 8.36801 42.3313 8.72934 41.5842 8.59555C39.5636 8.23485 38.5676 5.03247 41.7376 2.17856ZM40.1262 13.073C40.1437 13.5998 40.2136 14.1249 40.3317 14.6427C39.8784 14.5986 39.4282 14.5235 38.9949 14.3807C38.6004 14.2469 38.177 14.4637 38.0476 14.8573C37.9182 15.2508 38.1316 15.6747 38.5252 15.8045C40.0611 16.3127 41.7739 16.3231 43.3425 15.8104C43.7361 15.6815 43.9509 15.2577 43.822 14.8641C43.6931 14.4706 43.2708 14.2547 42.8757 14.3846C42.5467 14.4922 42.2085 14.5677 41.8666 14.6185C41.7266 14.1147 41.6686 13.5907 41.6495 13.0635C48.5958 13.0866 53.4338 14.3316 54.5711 15.0272C53.47 15.8495 48.6018 17.3895 41.8904 17.3895C35.1848 17.3895 29.6116 15.7459 28.5486 14.911C29.2167 14.2356 32.9025 13.189 40.1262 13.073ZM16.5813 18.2801C16.9817 17.2125 18.0069 16.4448 18.3196 15.0038C19.5961 16.0933 20.6309 17.664 20.4163 19.3084C20.2869 20.2987 19.6155 21.161 18.8196 21.3612C17.3358 21.743 15.9251 20.0293 16.5813 18.2801ZM16.7099 25.8712C16.7293 26.3956 16.7982 26.918 16.9131 27.4328C16.499 27.3895 16.0879 27.3175 15.6917 27.1825C15.2962 27.0497 14.8733 27.2586 14.7395 27.6502C14.6057 28.0428 14.8152 28.4686 15.2073 28.6024C16.704 29.1118 18.3556 29.1062 19.8455 28.5858C20.2366 28.45 20.4436 28.0223 20.3074 27.6307C20.1712 27.2391 19.7424 27.034 19.3523 27.1698C19.0562 27.2727 18.7525 27.3498 18.4449 27.4016C18.3097 26.8976 18.2517 26.3737 18.2313 25.8462C21.255 25.8266 24.3701 26.1231 26.8992 26.633C26.8396 27.4854 26.7799 28.3377 26.7284 29.1906C24.2972 29.8059 21.3366 30.164 18.4461 30.1805C12.1057 30.2049 6.83668 28.6161 5.74488 27.7391C6.36457 27.0789 9.83167 26.0285 16.7099 25.8712Z" fill="white"/>
</svg>
