<svg width="63" height="66" viewBox="0 0 63 66" fill="none" xmlns="http://www.w3.org/2000/svg">
<path d="M6.64897 26.2274C8.22624 26.3551 9.79014 26.1224 11.3334 25.7473C12.3178 25.6986 13.2583 25.6571 14.1987 25.7215C14.5737 25.7562 14.8822 25.513 14.974 25.1663C16.8059 18.2875 17.0719 17.5818 17.0512 16.1761C17.0238 14.2791 16.0815 12.4579 14.5912 11.4232C12.2342 9.78779 8.6704 10.2696 7.25724 13.1278C6.9568 13.7337 7.01791 14.2307 6.83732 14.6712C6.21314 14.6766 5.6503 14.4014 4.09007 15.0956C3.17515 15.0683 1.93339 16.0489 1.41795 16.5968C0.120158 17.9761 -0.341512 20.0866 0.26176 21.8818C1.13078 24.4677 3.92985 26.0072 6.64897 26.2274ZM7.19963 16.139C8.46453 15.9107 8.3721 14.2616 8.60099 13.7938C10.2165 10.5284 15.4887 11.8676 15.5512 16.1976C15.5684 17.3571 15.3148 18.0573 13.6801 24.1961C11.7941 24.1383 9.85788 24.4125 8.00041 24.2953C5.75236 24.1517 3.96427 23.3182 3.0922 22.0077C2.22795 20.7083 2.28166 18.8592 3.21916 17.6112C3.62638 17.0687 4.22404 16.6273 4.9047 16.3685C6.17483 15.8841 6.38375 16.2913 7.19963 16.139Z" fill="#9F217E"/>
<path d="M23.007 12.3065C23.7018 12.4655 23.663 12.4662 23.7797 12.4662C24.057 12.4662 24.3188 12.3123 24.4486 12.055C26.8713 7.27234 27.2711 6.62676 27.4926 5.50717C28.4037 0.859301 22.8652 -1.85146 20.2367 1.47592C19.9909 1.7877 19.8705 2.18664 19.7182 2.49301C19.4888 2.42819 19.6144 2.44888 19.192 2.36178C18.5674 1.6343 15.5391 2.76138 15.0965 3.22616C11.9915 6.48668 14.9327 13.2273 23.007 12.3065ZM21.2328 2.78158C21.2895 2.64779 21.3676 2.4642 21.4145 2.40512C23.0736 0.300287 26.6283 2.11471 26.0209 5.21762C25.855 6.05484 25.5832 6.49572 23.3822 10.8407C21.995 10.5199 20.4851 10.3981 19.1801 10.0335C13.3976 8.41713 15.9752 2.89864 19.1381 3.8851C20.1397 4.1942 20.6875 4.06203 21.2328 2.78158Z" fill="#9F217E"/>
<path d="M25.1957 16.0106C24.9857 27.3114 25.5241 37.0998 25.3842 48.2845C21.8461 45.7472 16.8482 47.1728 14.3862 50.1727C12.7579 52.1578 12.3021 54.9884 13.0449 57.4859C13.2773 60.2887 16.2816 64.0637 20.446 64.9226C23.8617 65.6269 27.6186 64.2951 29.828 61.5967C32.4907 58.3446 32.7386 53.8068 32.8665 49.6057C33.1009 41.9034 33.3353 34.2012 33.5697 26.4989L55.3512 21.0231C55.2627 30.4482 55.1232 36.739 55.0668 44.3221C53.1293 43.3699 51.5883 43.0716 49.3129 43.659C46.6116 44.3566 44.4804 46.3898 43.779 48.8289C42.2305 52.3742 44.1014 56.232 47.1374 58.0196C51.4605 60.565 57.5308 58.9724 59.7228 55.3852C60.7543 53.6972 60.9496 51.6441 61.0811 49.6703C61.3443 45.7179 61.4537 41.7571 61.5632 37.7975C61.8013 29.1799 62.6451 20.569 62.8832 11.9515C62.2963 11.3608 61.4022 10.6469 60.7786 10.0415C60.7786 10.0342 60.7787 10.0272 60.7787 10.0198C60.7787 9.53484 60.3279 9.18464 59.8725 9.28596C49.676 11.4537 36.0362 13.1116 25.7895 15.2908C25.4487 15.3631 25.2026 15.6614 25.1957 16.0106ZM26.8588 49.9578C27.0748 38.3363 26.4963 28.2069 26.685 16.6351C36.525 14.5877 49.3359 12.9896 59.2768 10.9427C59.2427 23.608 58.7521 34.6841 58.7407 47.4373C58.7377 50.1361 58.6147 52.7054 57.1616 54.4774C56.1635 55.6951 54.5141 56.4837 52.6362 56.6405C47.9219 57.0463 44.4625 53.4802 45.0825 49.7742C45.4389 47.637 47.3325 45.7196 49.6879 45.1112C51.9086 44.5384 53.2045 44.9676 55.4438 46.2171C55.6752 46.3465 55.9575 46.3436 56.1869 46.2103C56.4164 46.0765 56.5571 45.8319 56.559 45.5667C56.614 36.3011 56.8286 27.1177 56.8832 17.9559C56.8853 17.4472 56.3932 17.084 55.9116 17.2352C52.7338 18.2191 50.3344 18.66 47.2973 19.2181C37.645 20.9871 37.8043 21.614 30.1869 23.1566C29.8354 23.2274 29.5834 23.5369 29.5854 23.8953C29.5921 25.1481 29.526 50.291 29.5257 50.3921C29.4079 53.1741 29.0779 55.7986 27.8044 58.2377C26.4882 60.2006 24.3462 61.5762 22.0776 61.8382C19.3862 62.1439 16.5336 60.8148 15.1469 58.5931C13.7133 56.2952 13.8813 53.1541 15.5463 51.1239C16.8725 49.5072 19.1391 48.4627 21.3207 48.4627C22.2397 48.4627 24.0112 48.72 25.5492 50.4437C26.0016 50.9507 26.8459 50.639 26.8588 49.9578Z" fill="#9F217E"/>
</svg>
