<svg width="63" height="65" viewBox="0 0 63 65" fill="none" xmlns="http://www.w3.org/2000/svg">
<path d="M60.9176 9.98697C62.1363 8.23502 62.4693 5.95182 61.7867 4.02896C60.693 0.959443 57.1337 -0.887545 53.9879 0.783848C53.5657 1.00859 52.6666 1.89258 52.568 1.99576C52.312 1.87504 51.9413 1.43709 51.4811 1.1774C51.2972 1.07273 51.1028 0.984592 50.9071 0.899082C50.0077 -0.407803 46.6026 -0.0298732 45.4463 0.418491C43.201 1.2891 41.5447 3.5131 41.3537 5.91367C41.1437 8.55411 42.6034 11.1062 44.586 12.8626C46.5687 14.6191 49.0335 15.7176 51.4559 16.7893C51.7076 16.9007 51.9698 17.0086 52.2409 17.0333C52.5337 17.1617 52.8122 17.0996 53.0152 16.9323C59.2423 11.8126 60.0077 11.2934 60.9176 9.98697ZM52.5309 15.3883C50.7747 14.0413 48.7526 12.9812 47.1178 11.6413C40.4557 6.18463 46.0813 -0.174485 50.7418 2.48307C50.8873 2.5651 51.0182 2.68521 51.152 2.80143C52.1554 3.66663 52.774 3.8554 54.15 2.56217C54.3385 2.38443 54.5533 2.18228 54.692 2.10807C58.5074 0.0856111 62.5603 4.99702 59.6861 9.13053C58.923 10.2264 58.2448 10.6908 52.5309 15.3883Z" fill="white"/>
<path d="M19.4946 19.5192C15.6323 20.4039 12.0318 23.2897 9.9507 25.694C2.68012 34.0636 3.8149 47.1481 13.2476 53.8024C16.5112 56.1032 21.0083 57.4625 25.1343 57.4625C30.2554 57.4625 35.3738 55.3525 39.0923 50.9967C45.8704 43.034 44.6843 31.7803 38.2359 25.0807C33.7966 20.4397 26.5365 17.9423 19.4946 19.5192ZM40.1961 46.6708L38.856 45.9401C38.4907 45.7399 38.0357 45.8766 37.8384 46.2389C37.6402 46.6032 37.7739 47.0582 38.1372 47.2565L39.439 47.9664C37.1057 51.6478 33.906 53.9967 30.2597 55.1519L29.7661 53.4742C29.6489 53.0778 29.2359 52.8483 28.8345 52.9664C28.437 53.0836 28.2105 53.5006 28.3267 53.8981L28.8091 55.5383C25.0066 56.3831 21.2152 55.8798 17.7583 54.504L18.3169 53.3375C18.4956 52.9635 18.3374 52.5162 17.9634 52.3375C17.5894 52.1588 17.1421 52.317 16.9634 52.691L16.3858 53.8957C15.5833 53.5009 14.8115 53.0687 14.1128 52.5758C11.0463 50.4142 8.86318 47.4866 7.69301 44.0404L10.4927 43.2174C10.8902 43.1002 11.1167 42.6832 11.0005 42.2858C10.8833 41.8893 10.4732 41.6598 10.0689 41.778L7.27406 42.5996C6.229 38.3763 6.68503 34.2858 8.60964 30.4169C10.3253 31.3202 10.3568 31.4469 10.687 31.4469C11.463 31.4469 11.726 30.409 11.0474 30.0387L9.33077 29.1018C11.6198 25.3232 15.434 22.4332 18.7456 21.2945L19.4487 23.6862C19.5454 24.0123 19.8443 24.2242 20.1685 24.2242C20.2378 24.2242 20.3091 24.2145 20.3804 24.194C20.7778 24.0768 21.0044 23.6598 20.8882 23.2623L20.1968 20.9103C24.448 20.0401 28.718 20.7642 32.3836 22.6265L31.8677 23.5719C31.6694 23.9352 31.8032 24.3912 32.1665 24.5895C32.5294 24.788 32.9862 24.6538 33.1841 24.2907L33.6892 23.3651C37.3584 25.6201 39.7864 28.8047 41.1237 32.6519L39.1597 33.2291C38.3338 33.4732 38.509 34.6989 39.3716 34.6989C39.569 34.6989 39.593 34.655 41.5618 34.0872C42.658 38.3192 42.2722 42.6965 40.1961 46.6708Z" fill="white"/>
<path d="M33.5582 40.6618C33.4185 40.2711 32.9859 40.067 32.6002 40.2077C32.2095 40.3463 32.0064 40.776 32.1461 41.1657L32.3838 41.8319L27.0858 39.0036C27.3245 38.0863 27.0504 37.0744 26.3773 36.3995L29.7011 29.8888C29.8275 30.1253 29.838 30.9645 30.5933 30.9645C31.1004 30.9645 31.4632 30.4698 31.3072 29.985L30.5738 27.7018C30.4498 27.3151 30.0455 27.0954 29.648 27.2116L27.4058 27.8707C27.0084 27.9879 26.7818 28.4049 26.898 28.8024C27.0152 29.1979 27.4234 29.4264 27.8297 29.3102L28.398 29.143L25.0604 35.6806C23.1852 35.2987 21.4513 37.1163 21.9937 39.07C22.4823 40.8343 24.7388 41.6763 26.2967 40.284L31.5799 43.1043L31.1314 43.277C30.357 43.5762 30.575 44.7272 31.4009 44.7272C31.65 44.7272 31.5907 44.6895 33.9078 43.8151C34.2877 43.6686 34.481 43.2458 34.3443 42.8629L33.5582 40.6618Z" fill="white"/>
<path d="M47.941 18.5143C46.8319 17.153 44.6973 17.3076 44.1486 17.9751C43.1656 17.3525 42.053 16.9407 40.8997 16.7502C40.9786 16.5377 40.9725 16.2968 40.8414 16.0914C37.4957 10.8356 31.5494 7.43032 25.3238 7.20473C19.1021 6.9645 12.9195 9.94399 9.20268 14.943C9.1342 15.0351 9.09538 15.138 9.07426 15.2435C7.77397 15.3844 6.50718 15.8184 5.37584 16.4932C4.56736 15.6238 2.46877 15.5221 1.31206 16.8092C-0.039379 18.3059 0.701252 20.7031 1.63493 21.0003C0.805952 23.4 1.04161 26.1704 2.29429 28.3772C2.12999 29.062 1.66929 29.7876 1.44536 30.407C-1.71388 39.1454 0.242118 49.4606 7.94304 56.3576C7.4303 57.0746 6.6829 57.7206 6.08256 58.4752C3.79439 61.3554 5.47769 64.3101 8.51793 63.9273C10.3016 64.38 13.0298 62.0058 14.3398 60.4959C19.6822 62.8531 25.4859 63.0091 30.7354 61.447C32.0561 61.1195 33.3277 60.6804 34.5455 60.1297C34.8487 61.1992 36.2698 62.233 36.886 62.6668C37.7338 63.2636 38.677 63.7808 39.7076 63.8933C39.8045 63.9038 39.9036 63.8891 40.0019 63.8911C43.1997 64.7954 45.5177 61.6213 42.9253 58.5016C42.1899 57.6176 41.2203 56.8777 40.7181 55.9676C47.961 49.0396 49.7315 38.9323 46.1453 30.0625C46.2909 30.011 46.4266 29.9311 46.5201 29.7936C47.9712 27.6536 48.263 24.8491 47.4947 22.3947C47.66 22.3627 47.8194 22.2919 47.9341 22.152C48.771 21.1334 48.774 19.5358 47.941 18.5143ZM34.9565 17.885C28.2803 14.5103 20.7396 14.4539 15.5588 16.6886C14.5141 16.2429 13.4407 15.7974 12.3091 15.5027C13.5299 14.6943 17.2012 11.2658 23.5342 10.8687C27.8269 10.5995 32.2007 11.8924 35.6573 14.452C36.6589 15.1937 37.6205 16.0477 38.6929 16.6581C37.1363 16.7848 35.7256 17.3372 34.9565 17.885ZM3.67625 27.7717C2.33458 25.5403 2.26659 22.5486 3.57866 20.2965C4.97905 17.8913 7.90092 16.4186 10.6578 16.7077C11.716 16.8192 12.7529 17.1666 13.7676 17.5704C10.9056 19.1512 8.40684 21.3503 6.72221 23.2965C5.53929 24.6586 4.51952 26.1673 3.67625 27.7717ZM2.42631 17.8131C2.81505 17.3821 3.49406 17.2572 4.04631 17.4453C2.87119 18.4678 2.44306 19.3196 2.27702 19.5516C1.97832 19.0126 2.01372 18.2697 2.42631 17.8131ZM7.25639 59.4088C7.82775 58.6879 8.43813 58.2024 9.09044 57.3252C10.0611 58.0933 11.0891 58.7865 12.1642 59.3987C10.9505 60.5524 10.0674 61.8914 8.75932 62.3493C8.04741 62.6002 7.08549 62.486 6.70073 61.8629C6.27885 61.1832 6.67534 60.1403 7.25639 59.4088ZM41.771 59.4606C42.3687 60.1793 42.7896 61.2116 42.3824 61.901C42.0113 62.5309 41.0542 62.6657 40.3345 62.4342C38.8624 61.9554 37.9055 60.3619 36.407 59.1781C37.5203 58.5396 38.5816 57.8089 39.5794 56.9749C40.2417 58.0096 41.087 58.6387 41.771 59.4606ZM41.2173 53.2682C37.6421 57.4577 32.8472 59.9723 27.3521 60.5426C22.0962 61.0885 15.9234 59.4791 11.6177 56.442C0.894316 48.8816 -0.520273 33.9224 7.856 24.2799C10.8619 20.8063 15.1265 18.0309 18.7193 17.2086C26.7184 15.4063 35.0997 18.2236 40.229 23.5866C47.5643 31.2051 49.0337 44.0913 41.2173 53.2682ZM45.4844 28.5758C43.4858 24.4518 40.5139 21.1509 36.522 18.7538C39.1412 17.5513 42.5049 18.1005 44.521 20.1852C46.6281 22.3678 47.0044 25.9648 45.4844 28.5758ZM45.4498 19.0025C46.6509 18.803 47.4112 19.936 46.9037 20.9616C46.556 20.3004 46.0043 19.546 45.4498 19.0025Z" fill="white"/>
</svg>
