<svg width="65" height="62" viewBox="0 0 65 62" fill="none" xmlns="http://www.w3.org/2000/svg">
<path d="M58.4367 21.0878C59.7043 20.0282 60.3507 18.2899 60.0832 16.6591C60.0158 16.2504 59.6339 15.974 59.2218 16.0399C58.8126 16.1068 58.5353 16.4926 58.6027 16.9013C58.7834 18.0023 58.3293 19.2221 57.4738 19.9374C57.1564 20.203 57.1144 20.6757 57.38 20.9935C57.6462 21.3122 58.1196 21.3531 58.4367 21.0878Z" fill="#9F217E"/>
<path d="M62.8856 12.8554C61.1239 10.3869 58.165 8.79856 55.1326 8.76146C53.8066 8.7452 52.6497 9.08538 51.7263 9.0988C51.1419 8.37251 51.2158 6.93067 50.9532 5.76847C50.3058 2.91984 47.7189 0.591228 44.6632 0.105388C39.3854 -0.728244 33.8995 3.44284 33.1173 10.5199C32.753 13.811 33.6954 16.5258 34.6925 19.3998C37.163 26.7003 36.8881 25.6392 37.2237 26.9706C37.3324 27.402 37.4571 27.8775 37.6138 28.3432C36.8063 28.6659 36.1126 29.2492 35.4308 29.7875C35.0937 30.0489 35.0424 30.5467 35.3263 30.8715C35.724 31.3279 36.1645 31.7155 36.6193 32.0761C35.8504 32.9441 35.3473 33.5677 34.8351 34.7865C34.2384 36.2065 33.7989 37.7006 33.5265 39.2279C32.9897 42.2336 33.4405 48.4178 32.5958 52.7504C31.8185 56.7317 30.2796 58.1112 29.4067 59.4151C25.7462 54.127 27.6222 49.5454 27.8214 45.5912C27.9153 43.7229 27.8567 41.6102 26.3286 39.8264C26.7724 39.5505 27.2077 39.2525 27.6144 38.892C27.7677 38.7553 27.8595 38.561 27.8663 38.3549C27.879 37.9098 27.5373 37.7215 27.4054 37.5531C26.9338 37.0686 26.4115 36.5556 25.8027 36.183C26.3852 35.345 29.4354 30.2829 30.758 27.331C38.0686 11.0167 24.7108 2.57974 18.117 8.54661C14.6036 10.9162 15.3505 13.7166 14.2628 15.0663C13.9903 15.4032 13.8517 15.4096 13.0138 15.1171C12.6534 14.9911 12.2452 14.8486 11.7882 14.7944C10.9308 14.6947 10.0587 14.705 9.19346 14.8256C2.49478 15.7666 -0.450805 22.6326 1.50498 27.7944C3.33897 32.6371 8.44444 34.7943 11.3243 35.6488C14.5727 36.6139 16.4243 36.6397 19.4425 37.4584C20.421 37.725 21.4239 37.9909 22.3902 38.1037C22.3744 39.1127 22.4137 39.9003 22.379 40.5942C22.3663 40.8578 22.4923 41.1088 22.712 41.2553C23.1645 41.5569 23.5398 41.2497 23.9991 41.0492C24.3287 40.8944 24.661 40.7366 24.9925 40.5722C27.6164 43.2574 25.659 48.0562 25.6495 52.1889C25.6448 55.3233 26.7004 58.388 28.6145 60.8641C28.6959 61.2679 29.0159 61.4672 29.336 61.4672C30.0569 61.4672 30.5793 60.23 31.1573 59.5444C35.9197 53.9448 34.136 44.3469 35.003 39.4916C35.256 38.0727 35.6642 36.685 36.2179 35.3676C36.6592 34.3176 37.0502 33.8478 37.8388 32.9611C38.1945 33.1962 38.5029 33.392 39.1437 33.8027C39.6169 34.1106 40.2527 33.8002 40.2989 33.2333L40.4956 30.7558C41.4263 30.7795 42.1162 30.6973 43.1591 30.5574C47.4961 30.7423 54.91 30.2431 58.746 28.3271C64.6661 25.3701 66.5444 17.9821 62.8856 12.8554ZM11.7521 34.2109C9.1378 33.435 4.5128 31.5009 2.90733 27.2631C0.85596 21.849 5.08186 15.5234 11.6134 16.2841C12.2781 16.3628 12.8285 16.7434 13.6507 16.8098C13.528 17.4186 13.5285 18.0177 13.7325 18.725C13.8272 19.0536 14.1271 19.267 14.4532 19.267C14.9529 19.267 15.3113 18.7873 15.1739 18.309C14.8403 17.1531 15.3326 16.5387 15.5304 15.854C16.2915 14.7962 16.4091 13.439 16.7511 12.5063C17.5528 10.3251 19.8556 8.75236 22.3517 8.68058C26.8357 8.57613 31.0355 12.6917 30.92 18.9648C30.8644 21.9384 29.7101 24.2519 28.3731 26.9306C25.0758 33.669 25.3901 32.8287 24.839 34.2279C24.4562 35.1986 23.879 36.6635 23.1983 36.6635C22.8988 36.6175 22.6893 36.7863 19.8351 36.0111C16.4129 35.0816 15.1111 35.2091 11.7521 34.2109ZM23.8917 39.4408C23.8872 38.9864 23.8817 38.5226 23.8922 38.0326C24.2643 37.897 24.5818 37.6579 24.8567 37.3528C25.2494 37.5502 25.6279 37.8916 25.9981 38.2611C25.3507 38.7201 24.6388 39.0844 23.8917 39.4408ZM34.6075 10.685C35.2927 4.49712 39.9776 0.880994 44.4269 1.58683C46.8937 1.97892 48.9757 3.83488 49.4903 6.10051C49.7184 7.1047 49.6474 8.42902 50.2715 9.58104C50.4042 10.4165 50.7799 10.9716 50.3077 12.0585C50.1437 12.4384 50.3175 12.8803 50.6974 13.0448C51.0731 13.2083 51.5179 13.0384 51.6847 12.6552C51.9777 11.9787 52.0652 11.3873 52.0214 10.7674C52.4356 10.7857 52.838 10.7074 53.17 10.6381C55.3205 10.1842 58.3217 11.1325 60.1485 13.1342C62.4103 15.6112 62.9044 19.5566 61.3224 22.5141C59.1856 26.5107 54.3507 27.8344 51.6583 28.268C49.6844 28.5855 47.6307 28.6782 45.628 28.7734C43.8697 28.8558 41.6054 29.417 39.9972 29.2299C39.1108 29.1282 38.7522 26.6248 38.381 25.5326C35.2765 16.5265 34.2203 14.1924 34.6075 10.685ZM38.9024 31.8656C38.2237 31.4257 37.5802 30.9809 37.0099 30.4535C37.4151 30.1421 37.8424 29.8479 38.2602 29.7002C38.3766 29.8687 38.5062 30.0205 38.6497 30.1554C38.6455 30.1552 38.6414 30.1553 38.6372 30.1551C38.6418 30.1557 38.6463 30.1561 38.6509 30.1567C38.7633 30.2621 38.8885 30.3493 39.0199 30.4285C38.9567 31.2015 38.8941 31.968 38.9024 31.8656Z" fill="#9F217E"/>
<path d="M7.09678 28.3544C5.32604 27.3109 4.83533 24.965 6.01475 23.3012C6.25499 22.9633 6.17491 22.4955 5.83702 22.2558C5.49717 22.015 5.0294 22.0956 4.79209 22.434C3.10066 24.8167 3.81646 28.1632 6.33506 29.6464C6.69654 29.8594 7.15547 29.7329 7.36241 29.3812C7.57237 29.0243 7.45323 28.5643 7.09678 28.3544Z" fill="#9F217E"/>
<path d="M0.0958321 13.1401C-0.106316 13.5014 0.0216133 13.9584 0.382941 14.1616C3.03883 15.6165 3.15217 15.8061 3.50892 15.8061C4.28208 15.8061 4.54629 14.7776 3.87708 14.4023L1.11732 12.853C0.755988 12.6518 0.298957 12.7802 0.0958321 13.1401Z" fill="#9F217E"/>
<path d="M6.13784 13.3427C6.49721 13.1371 6.62221 12.6791 6.41713 12.3193L4.9767 9.80413C4.77065 9.44524 4.31557 9.31829 3.95327 9.52629C3.59389 9.73235 3.46987 10.1908 3.67592 10.5502L5.1144 13.0644C5.32047 13.4235 5.77988 13.5485 6.13784 13.3427Z" fill="#9F217E"/>
<path d="M9.13394 12.121C9.15835 12.121 9.18276 12.12 9.20718 12.1176C9.61929 12.0776 9.92105 11.7113 9.88101 11.2987L9.63784 8.78361C9.59878 8.37101 9.22769 8.07072 8.81948 8.10929C8.40737 8.14933 8.10562 8.51554 8.14566 8.92814L8.38882 11.4433C8.42593 11.831 8.7521 12.121 9.13394 12.121Z" fill="#9F217E"/>
</svg>
