<svg width="1052" height="1052" viewBox="0 0 1052 1052" fill="none" xmlns="http://www.w3.org/2000/svg">
<path d="M338 1015L412.5 856L536.5 244.5L703.5 252.5V598L810.5 891.5L842.5 980.5L833 1015H381H338Z" fill="#A94091"/>
<path d="M445.373 97.6343C445.373 137.033 413.436 168.97 374.038 168.97C334.639 168.97 302.702 137.033 302.702 97.6343C302.702 58.236 334.639 26.2991 374.038 26.2991C413.436 26.2991 445.373 58.236 445.373 97.6343Z" fill="#17416C"/>
<path d="M660.761 145.597C660.761 183.286 630.208 213.843 592.518 213.843C554.828 213.843 524.275 183.287 524.275 145.597C524.275 107.911 554.828 77.3535 592.518 77.3535C630.208 77.3535 660.761 107.91 660.761 145.597Z" fill="#9F217E"/>
<path d="M402.934 181.908L380.137 188.651C379.904 188.651 379.674 188.682 379.442 188.713C378.178 187.103 376.517 186.093 374.664 186.093C372.685 186.093 370.908 187.22 369.627 189.038C369.1 188.795 368.535 188.648 367.922 188.648L345.125 181.905C342.916 181.905 341.118 183.703 341.118 185.912V205.972C341.118 208.191 342.916 209.993 345.125 209.993L367.922 203.606C368.572 203.606 369.185 203.438 369.719 203.164C371.004 204.911 372.74 205.982 374.664 205.982C376.442 205.982 378.051 205.037 379.305 203.52C379.579 203.572 379.853 203.606 380.147 203.606L402.944 209.993C405.163 209.993 406.964 208.195 406.964 205.972V185.911C406.95 183.696 405.153 181.908 402.934 181.908Z" fill="#17416C"/>
<path d="M846.194 976.607L715.702 607.846V235.262H530.787C530.787 235.262 524.318 195.96 462.311 195.96H422.556V357.722C422.556 357.722 422.186 394.932 374.048 394.932C325.91 394.932 325.54 357.365 325.54 357.365L324.815 195.962H257.708C257.708 195.962 204.458 199.791 204.458 245.028V583.509C204.458 583.509 204.458 606.495 235.637 606.495C266.827 606.495 270.101 589.294 270.101 589.294V1023.12H391.563C391.563 1023.12 407.155 1023.39 407.155 1013.82C415.634 1022.03 442.584 1033.65 462.415 1013.82C472.535 1020.66 490.862 1035.17 515.752 1013.82C515.752 1013.82 544.743 1038.17 569.099 1013.82C582.502 1022.03 593.714 1033.24 622.983 1015.46C636.67 1022.57 656.091 1033.51 676.33 1014.64C693.836 1023.94 703.147 1034.06 729.677 1014.64C751.285 1025.59 764.959 1032.69 785.749 1011.63C802.697 1033.22 856.862 1032.68 846.194 976.603L846.194 976.607ZM281.384 309.753C268.285 309.753 257.683 299.137 257.683 286.041C257.683 272.953 268.299 262.341 281.384 262.341C294.482 262.341 305.095 272.956 305.095 286.041C305.095 299.137 294.479 309.753 281.384 309.753ZM812.083 1008.8C802.08 1008.8 793.946 1001.02 793.946 991.45C793.946 986.316 796.302 981.717 799.994 978.542H800.045C800.045 973.323 793.145 969.104 784.635 969.104C776.115 969.104 769.211 973.333 769.211 978.542H769.327C773.04 981.71 775.375 986.306 775.375 991.45C775.375 1001.04 767.262 1008.8 757.249 1008.8C747.246 1008.8 739.123 1001.02 739.123 991.45C739.123 986.306 741.479 981.697 745.195 978.522H745.123C745.112 973.314 738.685 969.095 730.764 969.095C722.833 969.095 716.405 973.324 716.405 978.533H716.436C720.148 981.7 722.483 986.296 722.483 991.44C722.483 1001.03 714.36 1008.79 704.347 1008.79C694.33 1008.79 686.21 1001.01 686.21 991.44C686.21 986.296 688.577 981.687 692.292 978.513H691.994C691.974 973.304 685.176 969.085 676.782 969.085C668.389 969.085 661.581 973.304 661.57 978.513H661.509C665.231 981.68 667.591 986.286 667.591 991.44C667.591 1001.03 659.468 1008.79 649.454 1008.79C639.437 1008.79 631.318 1001.01 631.318 991.44C631.318 986.307 633.674 981.707 637.365 978.533H637.492C637.492 973.314 630.896 969.095 622.763 969.095C614.64 969.095 608.045 973.324 608.045 978.533H608.233C611.945 981.7 614.281 986.296 614.281 991.44C614.281 1001.03 606.158 1008.79 596.155 1008.79C586.138 1008.79 578.018 1001.01 578.018 991.44C578.018 986.296 580.374 981.687 584.09 978.513H584.028C584.008 973.304 577.097 969.085 568.584 969.085C560.054 969.085 553.16 973.304 553.14 978.513H552.917C556.64 981.68 558.989 986.286 558.989 991.44C558.989 1001.03 550.876 1008.79 540.863 1008.79C530.846 1008.79 522.726 1001.01 522.726 991.44C522.726 986.296 525.082 981.687 528.808 978.513H528.63C528.62 973.304 522.613 969.085 515.227 969.085C507.84 969.085 501.854 973.304 501.834 978.513H501.625C505.348 981.68 507.707 986.286 507.707 991.44C507.707 1001.03 499.594 1008.79 489.581 1008.79C479.564 1008.79 471.455 1001.01 471.455 991.44C471.455 986.307 473.801 981.707 477.503 978.533H477.859C477.859 973.314 470.599 969.095 461.648 969.095C452.696 969.095 445.436 973.324 445.436 978.533H445.522C449.224 981.7 451.569 986.296 451.569 991.44C451.569 1001.03 443.457 1008.79 433.443 1008.79C423.427 1008.79 415.317 1001.01 415.317 991.44C415.317 986.296 417.674 981.687 421.399 978.513H421.19C421.17 973.304 414.711 969.085 406.746 969.085C398.77 969.085 392.301 973.314 392.301 978.523H392.397C396.099 981.691 398.444 986.286 398.444 991.43C398.444 1001.02 390.332 1008.78 380.308 1008.78C370.305 1008.78 362.182 1001.01 362.182 991.43C362.182 986.287 384.759 906.473 384.759 906.473L384.581 630.542C384.581 630.542 383.489 618.874 394.796 618.874C406.104 618.874 405.916 628.911 405.916 628.911L408.104 827.511L512.068 483.192H561.668C610.912 482.277 590.852 419.177 590.852 419.177L538.885 260.702C535.971 253.234 540.348 253.045 540.348 253.045H693.002C699.378 253.045 699.197 257.052 699.197 257.052L698.83 559.8L641.011 408.058L665.818 344.41C665.818 344.41 670.921 336.941 661.979 333.469C653.048 329.997 649.764 336.561 649.764 336.561L624.423 408.962L828.125 978.514C828.125 978.514 830.207 986.288 830.207 991.442C830.207 1001.03 822.088 1008.8 812.081 1008.8L812.083 1008.8Z" fill="#9F217E"/>
<path d="M530.787 235.262C530.787 235.262 524.318 195.96 462.311 195.96H422.556V357.722C422.556 357.722 422.186 394.932 374.048 394.932C325.91 394.932 325.54 357.365 325.54 357.365L324.815 195.962H257.708C257.708 195.962 204.458 199.791 204.458 245.028V583.509C204.458 583.509 204.458 606.495 235.637 606.495C266.827 606.495 270.101 589.294 270.101 589.294V1023.12C408.104 1112.5 530.787 235.262 530.787 235.262ZM281.384 309.753C268.285 309.753 257.683 299.137 257.683 286.041C257.683 272.953 268.299 262.341 281.384 262.341C294.482 262.341 305.095 272.956 305.095 286.041C305.095 299.137 294.479 309.753 281.384 309.753ZM380.308 1008.78C370.305 1008.78 362.182 1001.01 362.182 991.43C362.182 986.287 384.76 906.473 384.76 906.473L384.581 630.542C384.581 630.542 383.489 618.874 394.796 618.874C406.104 618.874 405.916 628.911 405.916 628.911L408.104 827.511L512.068 483.192H561.668C610.912 482.277 590.852 419.177 590.852 419.177L538.885 260.702C535.971 253.234 540.348 253.045 540.348 253.045L380.308 1008.78Z" fill="#17416C"/>
</svg>
