<svg width="52" height="52" viewBox="0 0 52 52" fill="none" xmlns="http://www.w3.org/2000/svg">
<rect width="36" height="36" transform="translate(0.544159 26) rotate(-45)" fill="#A94091"/>
<path fill-rule="evenodd" clip-rule="evenodd" d="M23.7877 27.0375V19.9231L30.3436 31.9791L29.5736 33.6951H29.8816L36.6136 18.9331V31.6271C36.6136 33.0791 36.0416 33.5851 35.1396 33.5851V33.6951H40.2876V33.5851C39.3856 33.5851 38.8136 33.0791 38.8136 31.6271V20.3631C38.8136 18.9111 39.3856 18.4051 40.2876 18.4051V18.2951H36.5916L31.5096 29.4711L25.5696 18.2951H22.0497V18.4051C22.9517 18.4051 23.5237 18.9111 23.5237 20.3631V26.349L23.7877 27.0375ZM17.6497 19.3511L17.6497 19.3511L17.2537 18.2951H19.4537L24.4477 31.3191C24.6864 31.9531 24.9252 32.4299 25.1709 32.7785C25.5817 33.3612 26.0118 33.5851 26.4937 33.5851V33.6951H22.0497V33.695H21.1257V33.5851C21.9792 33.5851 22.4921 33.3353 22.5582 32.7785C22.5679 32.6966 22.5679 32.6082 22.558 32.5129C22.5489 32.4257 22.5314 32.3327 22.5053 32.2338C22.4839 32.1528 22.4568 32.0679 22.4237 31.979L21.1697 28.657H14.4157L14.1517 29.361C13.9105 29.997 13.8393 30.6645 13.9058 31.2764C13.9175 31.3845 13.9336 31.4909 13.9537 31.595C13.9731 31.6953 13.9964 31.7935 14.0233 31.8893C14.1166 32.2215 14.254 32.5239 14.4289 32.7785C14.7467 33.2412 15.1883 33.5459 15.7137 33.5851V33.695H10.8737V33.5851C11.2462 33.5851 11.6805 33.3586 12.1591 32.7785C12.4274 32.4533 12.7097 32.0169 13.0028 31.4471C13.2676 30.9323 13.5414 30.3085 13.8217 29.5591L17.6497 19.3511L17.6497 19.3511ZM14.5257 28.3931H21.0597L21.0596 28.393H21.0597L17.8037 19.7471L14.5257 28.393H14.5257L14.5257 28.3931Z" fill="white"/>
</svg>
