<svg width="601" height="121" viewBox="0 0 601 121" fill="none" xmlns="http://www.w3.org/2000/svg">
<path fill-rule="evenodd" clip-rule="evenodd" d="M106.5 95.8001H97.9996V17.3001C97.9996 17.3001 97.9996 11.6001 92.8996 11.6001C88.1996 11.6001 47.0996 11.6001 47.0996 11.6001V3.1001H97.2996C97.2996 3.1001 106.4 3.1001 106.4 13.2001C106.5 23.3001 106.5 95.8001 106.5 95.8001Z" fill="#A94091"/>
<path fill-rule="evenodd" clip-rule="evenodd" d="M94.8 95.8H86.1V28.4001C86.1 28.4001 86.6 23.2001 81.6 23.2001C56.9 23.2001 47 23.2001 47 23.2001V14.8H90.2C90.2 14.8 94.7 15.1 94.7 19.8C94.8 23.1 94.8 95.8 94.8 95.8Z" fill="#A94091"/>
<path fill-rule="evenodd" clip-rule="evenodd" d="M82.9996 95.8001H74.8996V38.5001C74.8996 38.5001 75.2996 34.6001 71.6996 34.6001C65.1996 34.6001 47.0996 34.6001 47.0996 34.6001V26.1001H79.6996C79.6996 26.1001 82.9996 26.8001 82.9996 30.7001C82.9996 34.4001 82.9996 95.8001 82.9996 95.8001Z" fill="#A94091"/>
<path fill-rule="evenodd" clip-rule="evenodd" d="M71.5996 95.8001H63.0996V49.8001C63.0996 49.8001 63.5996 46.5001 60.1996 46.5001C51.4996 46.5001 47.0996 46.5001 47.0996 46.5001V38.1001H67.0996C70.2996 38.1001 71.5996 39.1001 71.5996 42.3001C71.5996 45.9001 71.5996 95.8001 71.5996 95.8001Z" fill="#A94091"/>
<path fill-rule="evenodd" clip-rule="evenodd" d="M0.5 3.1001H9V81.6001C9 81.6001 9 87.3001 14.1 87.3001C18.8 87.3001 59.9 87.3001 59.9 87.3001V95.8001H9.7C9.7 95.8001 0.6 95.8001 0.6 85.7001C0.5 75.6001 0.5 3.1001 0.5 3.1001Z" fill="#A94091"/>
<path fill-rule="evenodd" clip-rule="evenodd" d="M12.1992 3.1001H20.8992V70.5001C20.8992 70.5001 20.3992 75.7001 25.3992 75.7001C50.0992 75.7001 59.9992 75.7001 59.9992 75.7001V84.1001H16.7992C16.7992 84.1001 12.2992 83.8001 12.2992 79.1001C12.1992 75.8001 12.1992 3.1001 12.1992 3.1001Z" fill="#A94091"/>
<path fill-rule="evenodd" clip-rule="evenodd" d="M24.0004 3.1001H32.1004V60.3001C32.1004 60.3001 31.7004 64.2001 35.3004 64.2001C41.8004 64.2001 59.9004 64.2001 59.9004 64.2001V72.7001H27.2004C27.2004 72.7001 23.9004 72.0001 23.9004 68.1001C23.9004 64.5001 23.9004 3.6001 23.9004 3.6001V3.1001H24.0004Z" fill="#A94091"/>
<path fill-rule="evenodd" clip-rule="evenodd" d="M35.3999 3.1001H43.8999V49.1001C43.8999 49.1001 43.3999 52.4001 46.7999 52.4001C55.4999 52.4001 59.8999 52.4001 59.8999 52.4001V60.8001H39.8999C36.6999 60.8001 35.3999 59.8001 35.3999 56.6001C35.2999 53.0001 35.3999 3.1001 35.3999 3.1001Z" fill="#A94091"/>
<path d="M186.399 1.8999H175.199V12.9999H186.399V1.8999Z" fill="#A94091"/>
<path d="M186.399 26.5H175.199V95.8H186.399V26.5Z" fill="#A94091"/>
<path d="M577.701 1.6001H566.801V95.9001H577.701V1.6001Z" fill="#A94091"/>
<path fill-rule="evenodd" clip-rule="evenodd" d="M248.499 26.3999L225.999 82.4999L203.899 26.3999H191.199L218.699 95.7999H233.399L260.899 26.3999H249.099H248.499Z" fill="#A94091"/>
<path fill-rule="evenodd" clip-rule="evenodd" d="M143.701 85.0999C140.401 85.0999 137.901 82.1999 137.901 78.4999V1.8999H127.301V80.2999C127.301 88.8999 133.501 95.8999 141.401 95.8999H171.801V85.0999H143.701Z" fill="#A94091"/>
<path fill-rule="evenodd" clip-rule="evenodd" d="M353.1 37.7001C349.7 37.7001 347.2 40.7001 347.2 44.4001V95.8H336.4V42.6001C336.4 33.9001 342.7 26.8 350.6 26.8H363.7V37.7001H353.1Z" fill="#A94091"/>
<path fill-rule="evenodd" clip-rule="evenodd" d="M330.5 62.2V60.0999C330.5 39.9999 314.1 23.7 294 23.7C273.9 23.7 257.5 39.9999 257.5 60.0999C257.5 80.1999 273.9 96.4999 294 96.4999C311 96.4999 325.5 85.1 329.5 68.7H318.8C315.1 79.2 305.2 86.2999 294 86.2999C280.4 86.2999 269.2 76.0999 267.8 62.2999H330.5V62.2ZM269 51.9999C272.7 40.9999 282.8 33.8999 294 33.8999C305.1 33.8999 315.3 40.9999 318.9 51.9999H269Z" fill="#A94091"/>
<path fill-rule="evenodd" clip-rule="evenodd" d="M524.4 23.1001C511.1 23.1001 499.5 30.1001 492.9 40.7001C486.4 30.1001 474.7 23.1001 461.4 23.1001C448.1 23.1001 436.5 30.1001 429.9 40.7001C423.4 30.1001 411.7 23.1001 398.4 23.1001C378 23.1001 361.5 39.7001 361.5 60.1001V120.3H372.7V86.6001C379.4 93.1001 388.5 97.1001 398.5 97.1001C411.8 97.1001 423.5 90.1001 430 79.5001C436.5 90.1001 448.2 97.1001 461.5 97.1001C474.8 97.1001 486.5 90.1001 493 79.5001C499.5 90.1001 511.2 97.1001 524.5 97.1001C544.9 97.1001 561.5 80.5001 561.5 60.1001C561.4 39.7001 544.8 23.1001 524.4 23.1001ZM398.6 86.1001C384.3 86.1001 372.7 74.5001 372.7 60.1001C372.7 45.8001 384.3 34.1001 398.6 34.1001C412.9 34.1001 424.5 45.7001 424.5 60.1001C424.5 74.4001 412.8 86.1001 398.6 86.1001ZM461.5 86.1001C447.2 86.1001 435.6 74.5001 435.6 60.1001C435.6 45.8001 447.2 34.1001 461.5 34.1001C475.8 34.1001 487.4 45.7001 487.4 60.1001C487.4 74.4001 475.8 86.1001 461.5 86.1001ZM524.4 86.1001C510.1 86.1001 498.5 74.5001 498.5 60.1001C498.5 45.8001 510.1 34.1001 524.4 34.1001C538.7 34.1001 550.3 45.7001 550.3 60.1001C550.3 74.4001 538.7 86.1001 524.4 86.1001Z" fill="#A94091"/>
<path fill-rule="evenodd" clip-rule="evenodd" d="M591.4 18.3C586.4 18.3 582.4 14.3 582.4 9.39999C582.4 4.49999 586.4 0.5 591.4 0.5C596.4 0.5 600.4 4.49999 600.4 9.39999C600.5 14.4 596.4 18.3 591.4 18.3ZM591.4 2C587.3 2 583.9 5.29999 583.9 9.39999C583.9 13.5 587.2 16.8 591.4 16.8C595.6 16.8 598.9 13.5 598.9 9.39999C599 5.29999 595.6 2 591.4 2ZM587.5 4.79999H591.8C594.2 4.79999 595 6.29999 595 7.29999C595 8.79999 593.9 10 592.2 10V10.1C593 10.4 593.6 11.2 594.4 12.5L595.6 14.4H593.7L592.8 12.9C591.6 10.7 591.1 10.3 589.9 10.3H589V14.3H587.4V4.79999H587.5ZM591.3 9C592.5 9 593.3 8.50001 593.3 7.60001C593.3 6.70001 592.6 6.20001 591.6 6.20001H589.1V9.10001H591.3V9Z" fill="#A94091"/>
</svg>
