<svg width="41" height="41" viewBox="0 0 41 41" fill="none" xmlns="http://www.w3.org/2000/svg">
<path fill-rule="evenodd" clip-rule="evenodd" d="M17.914 20.7424V13.628L24.47 25.684L23.7 27.4H24.008L30.7399 12.638V25.332C30.7399 26.784 30.1679 27.29 29.2659 27.29V27.4H34.4139V27.29C33.5119 27.29 32.9399 26.784 32.9399 25.332V14.068C32.9399 12.616 33.5119 12.11 34.4139 12.11V12H30.7179L25.636 23.176L19.696 12H16.176V12.11C17.078 12.11 17.65 12.616 17.65 14.068V20.0539L17.914 20.7424ZM11.776 13.056L11.776 13.056L11.38 12H13.58L18.574 25.024C18.8128 25.658 19.0515 26.1348 19.2972 26.4834C19.708 27.066 20.1382 27.29 20.62 27.29V27.4H16.176V27.3999H15.252V27.29C16.1055 27.29 16.6184 27.0402 16.6845 26.4834C16.6942 26.4015 16.6942 26.3131 16.6843 26.2178C16.6752 26.1306 16.6578 26.0375 16.6316 25.9387C16.6103 25.8577 16.5831 25.7728 16.55 25.6839L15.296 22.3619H8.54198L8.27798 23.0659C8.03677 23.7019 7.96556 24.3694 8.03207 24.9813C8.04382 25.0894 8.05987 25.1958 8.08004 25.2999C8.09945 25.4002 8.12269 25.4984 8.14959 25.5942C8.24292 25.9264 8.38034 26.2288 8.5552 26.4834C8.87303 26.946 9.31458 27.2508 9.83998 27.29V27.3999H5V27.29C5.3725 27.29 5.80679 27.0635 6.28543 26.4834C6.55374 26.1581 6.83598 25.7218 7.1291 25.152C7.39395 24.6372 7.66767 24.0134 7.948 23.264L11.776 13.056L11.776 13.056ZM8.652 22.098H15.186L15.186 22.0979H15.186L11.93 13.452L8.65198 22.0979H8.65203L8.652 22.098Z" fill="white"/>
<circle cx="20.5" cy="20.5" r="20.25" stroke="white" stroke-width="0.5"/>
</svg>
